<svg width="26" height="21" viewBox="0 0 26 21" fill="none" xmlns="http://www.w3.org/2000/svg">
<path d="M1.02917 11.3842C0.704167 10.7211 0.451389 10.0487 0.270833 9.36711C0.0902778 8.68553 0 7.99474 0 7.29474C0 5.23158 0.686111 3.5 2.05833 2.1C3.43056 0.7 5.12778 0 7.15 0C8.2875 0 9.37083 0.244079 10.4 0.732237C11.4292 1.22039 12.2958 1.89737 13 2.76316C13.7042 1.89737 14.5708 1.22039 15.6 0.732237C16.6292 0.244079 17.7125 0 18.85 0C20.8722 0 22.5694 0.7 23.9417 2.1C25.3139 3.5 26 5.23158 26 7.29474C26 7.99474 25.9097 8.68553 25.7292 9.36711C25.5486 10.0487 25.2958 10.7211 24.9708 11.3842C24.7722 11.0342 24.5375 10.7211 24.2667 10.4447C23.9958 10.1684 23.6799 9.94737 23.3188 9.78158C23.4813 9.35789 23.6076 8.94342 23.6979 8.53816C23.7882 8.13289 23.8333 7.71842 23.8333 7.29474C23.8333 5.85789 23.3549 4.65132 22.3979 3.675C21.441 2.69868 20.2583 2.21053 18.85 2.21053C17.3875 2.21053 16.2635 2.62039 15.4781 3.44013C14.6927 4.25987 13.8667 5.17632 13 6.18947C12.1333 5.15789 11.3073 4.23684 10.5219 3.42632C9.73646 2.61579 8.6125 2.21053 7.15 2.21053C5.74167 2.21053 4.55903 2.69868 3.60208 3.675C2.64514 4.65132 2.16667 5.85789 2.16667 7.29474C2.16667 7.71842 2.21181 8.13289 2.30208 8.53816C2.39236 8.94342 2.51875 9.35789 2.68125 9.78158C2.32014 9.94737 2.00417 10.1684 1.73333 10.4447C1.4625 10.7211 1.22778 11.0342 1.02917 11.3842ZM0 21V19.2592C0 18.4487 0.401736 17.7993 1.20521 17.3112C2.00868 16.823 3.05139 16.5789 4.33333 16.5789C4.56806 16.5789 4.79375 16.5836 5.01042 16.5928C5.22708 16.602 5.43472 16.625 5.63333 16.6618C5.38056 17.0303 5.19097 17.4263 5.06458 17.85C4.93819 18.2737 4.875 18.725 4.875 19.2039V21H0ZM6.5 21V19.2039C6.5 18.0066 7.10035 17.0395 8.30104 16.3026C9.50174 15.5658 11.0681 15.1974 13 15.1974C14.95 15.1974 16.5208 15.5658 17.7125 16.3026C18.9042 17.0395 19.5 18.0066 19.5 19.2039V21H6.5ZM21.125 21V19.2039C21.125 18.725 21.0663 18.2737 20.949 17.85C20.8316 17.4263 20.6556 17.0303 20.4208 16.6618C20.6194 16.625 20.8226 16.602 21.0302 16.5928C21.2378 16.5836 21.45 16.5789 21.6667 16.5789C22.9667 16.5789 24.0139 16.823 24.8083 17.3112C25.6028 17.7993 26 18.4487 26 19.2592V21H21.125ZM13 17.4079C11.9708 17.4079 11.05 17.5461 10.2375 17.8224C9.425 18.0987 8.94653 18.4211 8.80208 18.7895H17.225C17.0625 18.4211 16.5795 18.0987 15.776 17.8224C14.9726 17.5461 14.0472 17.4079 13 17.4079ZM4.33333 15.4737C3.7375 15.4737 3.22743 15.2572 2.80313 14.8243C2.37882 14.3914 2.16667 13.8711 2.16667 13.2632C2.16667 12.6368 2.37882 12.1118 2.80313 11.6882C3.22743 11.2645 3.7375 11.0526 4.33333 11.0526C4.94722 11.0526 5.46181 11.2645 5.87708 11.6882C6.29236 12.1118 6.5 12.6368 6.5 13.2632C6.5 13.8711 6.29236 14.3914 5.87708 14.8243C5.46181 15.2572 4.94722 15.4737 4.33333 15.4737ZM21.6667 15.4737C21.0708 15.4737 20.5608 15.2572 20.1365 14.8243C19.7122 14.3914 19.5 13.8711 19.5 13.2632C19.5 12.6368 19.7122 12.1118 20.1365 11.6882C20.5608 11.2645 21.0708 11.0526 21.6667 11.0526C22.2806 11.0526 22.7951 11.2645 23.2104 11.6882C23.6257 12.1118 23.8333 12.6368 23.8333 13.2632C23.8333 13.8711 23.6257 14.3914 23.2104 14.8243C22.7951 15.2572 22.2806 15.4737 21.6667 15.4737ZM13 14.3684C12.0972 14.3684 11.3299 14.0461 10.6979 13.4013C10.066 12.7566 9.75 11.9737 9.75 11.0526C9.75 10.1132 10.066 9.32566 10.6979 8.69013C11.3299 8.05461 12.0972 7.73684 13 7.73684C13.9208 7.73684 14.6927 8.05461 15.3156 8.69013C15.9385 9.32566 16.25 10.1132 16.25 11.0526C16.25 11.9737 15.9385 12.7566 15.3156 13.4013C14.6927 14.0461 13.9208 14.3684 13 14.3684ZM13 9.94737C12.6931 9.94737 12.4358 10.0533 12.2281 10.2651C12.0205 10.477 11.9167 10.7395 11.9167 11.0526C11.9167 11.3658 12.0205 11.6283 12.2281 11.8401C12.4358 12.052 12.6931 12.1579 13 12.1579C13.3069 12.1579 13.5642 12.052 13.7719 11.8401C13.9795 11.6283 14.0833 11.3658 14.0833 11.0526C14.0833 10.7395 13.9795 10.477 13.7719 10.2651C13.5642 10.0533 13.3069 9.94737 13 9.94737Z" fill="white"/>
</svg>
