<svg width="140" height="140" viewBox="0 0 140 140" fill="none" xmlns="http://www.w3.org/2000/svg">
<path d="M15.8563 35.9717L62.5127 35.9717V33.9249L15.8563 33.9249V35.9717Z" fill="#EBEBEB"/>
<path d="M59.8949 35.9744H57.8481V42.742H59.8949V35.9744Z" fill="#EBEBEB"/>
<path d="M59.8949 35.9744H57.8481V38.066H59.8949V35.9744Z" fill="#DBDBDB"/>
<path d="M20.5155 35.9744H18.4688V42.742H20.5155V35.9744Z" fill="#EBEBEB"/>
<path d="M20.5155 35.9744H18.4688V38.066H20.5155V35.9744Z" fill="#DBDBDB"/>
<path d="M53.8022 33.9277V20.8881H50.5178V33.9277H53.8022Z" fill="#C7C7C7"/>
<path d="M53.8022 21.6244V20.1908H50.5178V21.6244H53.8022Z" fill="#DBDBDB"/>
<path d="M53.8022 23.9904V23.4584H50.5178V23.9904H53.8022Z" fill="#DBDBDB"/>
<path d="M53.8022 32.2168V30.7832H50.109V32.2168H53.8022Z" fill="#DBDBDB"/>
<path d="M50.5176 33.9276V18.7152H48.2216V33.9276H50.5176Z" fill="#DBDBDB"/>
<path d="M50.0698 25.9952V20.146H48.6922V25.9952H50.0698Z" fill="#EBEBEB"/>
<path d="M33.5115 33.9329L44.3301 23.2383L42.7159 21.6054L31.8974 32.3001L33.5115 33.9329Z" fill="#C7C7C7"/>
<path d="M35.7211 31.0916L39.8809 26.9795L38.9124 25.9998L34.7526 30.1119L35.7211 31.0916Z" fill="#DBDBDB"/>
<path d="M48.2246 33.9277V22.3749H44.327V33.9277H48.2246Z" fill="#A6A6A6"/>
<path d="M48.2246 32.7068V31.6288H44.327V32.7068H48.2246Z" fill="#C7C7C7"/>
<path d="M48.2246 30.9204V30.5032H44.327V30.9204H48.2246Z" fill="#C7C7C7"/>
<path d="M56.4956 33.9304V23.072H53.8048V33.9304H56.4956Z" fill="#A6A6A6"/>
<path d="M56.4956 32.7768V31.766H53.8048V32.7768H56.4956Z" fill="#C7C7C7"/>
<path d="M56.4956 26.32V25.3092H53.8048V26.32H56.4956Z" fill="#C7C7C7"/>
<path d="M56.4927 27.4064V27.0144H53.8019V27.4064H56.4927Z" fill="#C7C7C7"/>
<path d="M25.2897 20.0172C27.5857 22.2572 27.9721 25.746 27.4877 28.7924C27.4877 28.8596 27.3673 28.8428 27.3673 28.7756C27.3673 28.084 27.3897 27.3952 27.3869 26.712C27.3869 26.6784 27.3645 26.6504 27.3505 26.6196C26.7318 26.212 26.22 25.6618 25.8581 25.0152C25.4745 24.262 25.3233 23.4108 25.0321 22.6212C25.0041 22.5456 25.0853 22.568 25.1357 22.6072C26.5357 23.6376 26.9781 24.7464 27.3757 26.2276C27.3665 25.4526 27.285 24.6802 27.1321 23.9204C26.8654 22.4883 26.2063 21.1583 25.2281 20.0788C25.2228 20.0702 25.2206 20.0601 25.2218 20.0501C25.223 20.0402 25.2275 20.0309 25.2346 20.0237C25.2417 20.0166 25.251 20.0121 25.261 20.0109C25.271 20.0097 25.2811 20.012 25.2897 20.0172Z" fill="#A6A6A6"/>
<path d="M24.8584 20.2805C24.4608 20.2805 24.2144 20.9245 23.9064 21.1205C23.874 21.1468 23.8364 21.166 23.7961 21.1768C23.7557 21.1876 23.7136 21.1897 23.6724 21.1831C23.6311 21.1765 23.5918 21.1613 23.5568 21.1384C23.5219 21.1156 23.4922 21.0856 23.4696 21.0505C23.1644 20.6249 23.5844 20.1013 23.9764 19.8073C23.7168 19.9528 23.4428 20.071 23.1588 20.1601C23.12 20.1737 23.0787 20.1787 23.0378 20.1745C22.9969 20.1704 22.9574 20.1573 22.9221 20.1362C22.8868 20.1151 22.8566 20.0865 22.8337 20.0524C22.8107 20.0182 22.7955 19.9795 22.7892 19.9389C22.6548 19.3593 23.3828 19.0989 23.884 19.0989C23.6404 18.9309 22.946 18.4745 23.324 18.2589C23.702 18.0433 24.514 18.6873 24.7772 18.9029C25.1692 19.2193 25.634 19.6953 25.6536 20.1909C25.6676 20.7565 25.1608 20.4009 24.8584 20.2805Z" fill="#DBDBDB"/>
<path d="M24.9706 20.3784C24.4666 20.146 23.495 20.4792 23.4138 20.286C23.2458 19.8968 24.0214 19.6308 24.4414 19.5776C24.055 19.474 23.3214 19.2976 23.3382 18.9364C23.3662 18.4828 24.4722 18.872 25.0322 19.3004C25.735 19.8408 25.7322 20.3644 25.6146 20.468C25.455 20.6108 25.0546 20.4148 24.9706 20.3784Z" fill="#EBEBEB"/>
<path d="M30.52 19.796C28.14 21.9548 27.622 25.4156 28 28.476C28 28.546 28.1176 28.532 28.1204 28.476C28.1456 27.7844 28.1512 27.0956 28.1792 26.4124L28.2184 26.32C28.8522 25.9382 29.3844 25.4089 29.7696 24.7772C30.184 24.038 30.366 23.1924 30.688 22.4168C30.7188 22.3412 30.6376 22.3608 30.5844 22.3972C29.148 23.3744 28.6608 24.4664 28.2044 25.9308C28.2426 25.1568 28.3532 24.3881 28.5348 23.6348C28.8571 22.2123 29.5687 20.9074 30.59 19.866C30.5993 19.8567 30.6045 19.8441 30.6045 19.831C30.6045 19.8179 30.5993 19.8053 30.59 19.796C30.5807 19.7867 30.5681 19.7815 30.555 19.7815C30.5419 19.7815 30.5293 19.7867 30.52 19.796Z" fill="#A6A6A6"/>
<path d="M30.9402 20.0732C31.335 20.1012 31.559 20.7424 31.8586 20.9384C31.89 20.966 31.9268 20.9867 31.9668 20.999C32.0067 21.0114 32.0488 21.0152 32.0903 21.0102C32.1318 21.0052 32.1718 20.9914 32.2076 20.9699C32.2434 20.9483 32.2743 20.9195 32.2982 20.8852C32.6202 20.4708 32.2198 19.9304 31.839 19.6224C32.0922 19.7856 32.3615 19.9226 32.6426 20.0312C32.6808 20.0463 32.722 20.0529 32.7631 20.0503C32.8041 20.0477 32.8442 20.0362 32.8803 20.0164C32.9163 19.9966 32.9476 19.9691 32.9719 19.9358C32.9961 19.9026 33.0128 19.8644 33.0206 19.824C33.1746 19.2472 32.4606 18.9616 31.9594 18.9308C32.2058 18.7712 32.917 18.34 32.5586 18.0908C32.2002 17.8416 31.3602 18.48 31.0802 18.69C30.677 18.9924 30.1954 19.4488 30.159 19.9416C30.1142 20.5184 30.6322 20.1824 30.9402 20.0732Z" fill="#DBDBDB"/>
<path d="M30.8224 20.16C31.3376 19.95 32.2924 20.3168 32.382 20.1292C32.564 19.7484 31.7996 19.4516 31.3852 19.3844C31.7744 19.2948 32.5052 19.1548 32.5052 18.7824C32.5052 18.3288 31.3852 18.676 30.8 19.0848C30.0776 19.5972 30.0608 20.118 30.1728 20.2272C30.3296 20.3812 30.7384 20.202 30.8224 20.16Z" fill="#EBEBEB"/>
<path d="M28.0839 25.4996C27.9246 26.6544 27.6774 27.7955 27.3447 28.9128C27.3403 28.9347 27.3273 28.9539 27.3087 28.9663C27.29 28.9786 27.2672 28.983 27.2453 28.9786C27.2234 28.9741 27.2042 28.9611 27.1919 28.9425C27.1795 28.9239 27.1751 28.9011 27.1795 28.8792C27.3363 27.8264 27.6219 26.7932 27.7759 25.7432C27.9479 24.6781 28.0099 23.5981 27.9607 22.5204C27.8599 20.748 27.3783 18.8608 26.2219 17.4804C26.1967 17.4468 26.2499 17.3992 26.2751 17.43C28.5935 20.132 28.2351 23.4444 28.2351 23.7412C28.5627 22.6212 28.9015 21.3416 30.1419 20.202C30.1951 20.1516 30.2371 20.1768 30.2287 20.2608C30.0075 22.3328 29.4307 23.4164 28.2267 24.5252C28.1791 24.8472 28.1371 25.1748 28.0839 25.4996Z" fill="#A6A6A6"/>
<path d="M26.1996 17.7856C25.7824 17.6008 25.2084 18.13 24.7996 18.1664C24.7537 18.1774 24.706 18.1787 24.6595 18.1704C24.613 18.162 24.5688 18.1441 24.5296 18.1178C24.4904 18.0915 24.4571 18.0574 24.4317 18.0175C24.4064 17.9777 24.3896 17.933 24.3824 17.8864C24.2788 17.2928 24.9788 16.9568 25.5332 16.8504C25.1832 16.828 24.8388 16.9232 24.4944 16.8308C24.4469 16.8252 24.4013 16.8095 24.3605 16.7846C24.3197 16.7598 24.2848 16.7264 24.2582 16.6867C24.2316 16.6471 24.2139 16.6021 24.2063 16.5549C24.1988 16.5078 24.2015 16.4596 24.2144 16.4136C24.3684 15.7444 25.2532 15.8536 25.7796 16.0804C25.6116 15.8004 25.1216 14.9604 25.6172 14.9128C26.1128 14.8652 26.6364 15.9544 26.8016 16.3128C27.048 16.8392 27.2944 17.5644 27.062 18.088C26.8016 18.6872 26.4544 18.0628 26.1996 17.7856Z" fill="#DBDBDB"/>
<path d="M26.2696 17.9424C25.8608 17.4524 24.6876 17.3068 24.6988 17.066C24.7212 16.5788 25.6592 16.6908 26.1212 16.8476C25.774 16.5452 25.0908 16.0076 25.3008 15.6268C25.5584 15.1704 26.5076 16.1308 26.8744 16.8588C27.3336 17.7744 27.0648 18.312 26.8912 18.3624C26.6532 18.4296 26.3368 18.0264 26.2696 17.9424Z" fill="#EBEBEB"/>
<path d="M29.6099 26.1212L30.6319 33.9276H24.4131C24.5419 33.236 25.6983 26.1128 25.6983 26.1128L29.6099 26.1212Z" fill="#DBDBDB"/>
<path d="M103.771 28.1204C103.941 27.4022 104.249 26.724 104.678 26.124C105.087 25.564 105.746 25.1571 106.655 24.9032C106.935 24.8192 107.263 24.7296 107.658 24.6232C108.064 24.5245 108.461 24.3915 108.845 24.2256C109.235 24.0589 109.596 23.829 109.912 23.5452C110.232 23.2562 110.455 22.8761 110.553 22.456C110.636 22.1539 110.647 21.8362 110.584 21.5292C110.525 21.2533 110.41 20.9923 110.248 20.762C110.079 20.5297 109.866 20.3335 109.62 20.1852C109.369 20.0296 109.095 19.9144 108.808 19.8436C108.479 19.759 108.136 19.7428 107.8 19.796C107.495 19.8414 107.197 19.928 106.916 20.0536C106.641 20.1768 106.381 20.3318 106.143 20.5156C105.923 20.6826 105.712 20.8621 105.513 21.0532L103.805 19.0932C104.123 18.6636 104.511 18.2907 104.953 17.99C105.383 17.6977 105.855 17.4721 106.353 17.3208C106.86 17.1691 107.386 17.089 107.915 17.0828C108.462 17.075 109.007 17.1399 109.536 17.276C110.14 17.4283 110.718 17.6669 111.253 17.9844C111.787 18.2997 112.254 18.7185 112.625 19.2164C113.007 19.7363 113.271 20.3336 113.398 20.9664C113.54 21.7103 113.507 22.4772 113.302 23.2064C113.196 23.6626 113.022 24.1004 112.787 24.5056C112.578 24.8545 112.316 25.1682 112.009 25.4352C111.705 25.6961 111.369 25.9172 111.009 26.0932C110.619 26.2813 110.215 26.4413 109.802 26.572C109.436 26.684 109.074 26.7848 108.713 26.88C108.365 26.9699 108.025 27.0918 107.7 27.244C107.388 27.3854 107.103 27.5806 106.86 27.8208C106.609 28.0848 106.435 28.4119 106.356 28.7672L103.771 28.1204ZM102.424 33.6728L103.25 30.3912L105.891 31.0548L105.065 34.3364L102.424 33.6728Z" fill="#EBEBEB"/>
<path d="M20.4627 88.9784C20.5828 89.5089 20.598 90.0577 20.5075 90.594C20.3738 91.1645 20.0548 91.6746 19.6003 92.0444C19.4435 92.1872 19.2503 92.3552 19.0207 92.5456C18.7829 92.7417 18.5628 92.9581 18.3627 93.1924C18.1563 93.4285 17.9907 93.6972 17.8727 93.9876C17.7542 94.2828 17.7288 94.6072 17.7999 94.9172C17.8434 95.1451 17.9393 95.3598 18.0799 95.5444C18.2084 95.7079 18.3683 95.8441 18.5503 95.9448C18.7373 96.0428 18.9419 96.1027 19.1523 96.1212C19.3692 96.1438 19.5884 96.1325 19.8019 96.0876C20.045 96.0405 20.2764 95.9453 20.4823 95.8076C20.6706 95.6795 20.8402 95.5259 20.9863 95.3512C21.1285 95.179 21.2506 94.9911 21.3503 94.7912C21.4433 94.6099 21.5246 94.4229 21.5939 94.2312L23.3579 94.9704C23.2843 95.3584 23.1461 95.7314 22.9491 96.0736C22.7575 96.4081 22.5158 96.7113 22.2323 96.9724C21.9456 97.2386 21.6222 97.4621 21.2719 97.636C20.9119 97.8169 20.5297 97.9497 20.1351 98.0308C19.6862 98.1254 19.2259 98.1547 18.7687 98.1176C18.3124 98.0815 17.8679 97.9549 17.4611 97.7452C17.039 97.5228 16.6702 97.2113 16.3803 96.8324C16.047 96.385 15.8218 95.8666 15.7223 95.3176C15.6445 94.981 15.618 94.6345 15.6439 94.29C15.6687 93.991 15.7415 93.6979 15.8595 93.422C15.9752 93.1501 16.1268 92.8949 16.3103 92.6632C16.5069 92.4105 16.7222 92.1727 16.9543 91.952C17.1615 91.7616 17.3687 91.5768 17.5787 91.392C17.7817 91.2224 17.9691 91.035 18.1387 90.832C18.2899 90.6362 18.4055 90.4154 18.4803 90.1796C18.562 89.923 18.5717 89.6489 18.5083 89.3872L20.4627 88.9784ZM19.5611 84.8596L20.0735 87.304L18.1135 87.7156L17.6011 85.274L19.5611 84.8596Z" fill="#EBEBEB"/>
<path d="M108.64 63.994C108.97 64.4267 109.212 64.9193 109.354 65.4444C109.467 66.0211 109.385 66.6188 109.122 67.144C109.04 67.34 108.934 67.5724 108.805 67.8412C108.669 68.1181 108.559 68.4068 108.475 68.7036C108.385 69.004 108.346 69.3173 108.36 69.6304C108.376 69.948 108.487 70.2533 108.679 70.5068C108.813 70.6956 108.99 70.8501 109.194 70.9576C109.38 71.0535 109.583 71.1106 109.791 71.1256C110.002 71.1392 110.213 71.1097 110.412 71.0388C110.618 70.9674 110.811 70.8655 110.986 70.7364C111.188 70.5933 111.359 70.4104 111.488 70.1988C111.61 70.0041 111.705 69.793 111.768 69.5716C111.824 69.3565 111.857 69.1359 111.866 68.9136C111.877 68.7113 111.877 68.5084 111.866 68.306L113.775 68.2444C113.871 68.6266 113.902 69.0224 113.865 69.4148C113.828 69.8001 113.734 70.1777 113.585 70.5348C113.433 70.8954 113.231 71.2328 112.986 71.5372C112.734 71.854 112.442 72.1364 112.118 72.3772C111.748 72.6503 111.34 72.8682 110.908 73.024C110.478 73.1803 110.021 73.2498 109.564 73.2284C109.089 73.2015 108.624 73.0726 108.203 72.8504C107.714 72.5809 107.293 72.2025 106.974 71.7444C106.763 71.4707 106.595 71.1667 106.476 70.8428C106.373 70.5606 106.317 70.2637 106.31 69.9636C106.302 69.6678 106.333 69.3721 106.403 69.0844C106.479 68.7736 106.577 68.4685 106.697 68.1716C106.806 67.9112 106.915 67.6564 107.033 67.4072C107.15 67.1675 107.243 66.9172 107.313 66.6596C107.376 66.4177 107.397 66.1667 107.374 65.9176C107.341 65.6507 107.236 65.398 107.069 65.1868L108.64 63.994ZM106.12 60.634L107.601 62.6416L105.986 63.8344L104.504 61.8268L106.12 60.634Z" fill="#EBEBEB"/>
<path d="M117.835 58.9428C117.826 58.3442 117.934 57.7495 118.155 57.1928C118.428 56.6084 118.889 56.1323 119.465 55.8404C119.664 55.72 119.91 55.5856 120.201 55.4316C120.497 55.2743 120.778 55.0917 121.041 54.8856C121.317 54.6795 121.556 54.4276 121.747 54.1408C121.939 53.8486 122.036 53.5046 122.027 53.1552C122.032 52.9137 121.982 52.6742 121.883 52.4543C121.783 52.2343 121.635 52.0395 121.45 51.884C121.273 51.7349 121.067 51.6234 120.845 51.5564C120.617 51.4843 120.379 51.4475 120.14 51.4472C119.868 51.4441 119.597 51.4945 119.345 51.5956C119.113 51.6926 118.896 51.8197 118.698 51.9736C118.505 52.1254 118.332 52.2993 118.18 52.4916C118.04 52.6657 117.911 52.848 117.793 53.0376L116.063 51.8448C116.229 51.4442 116.461 51.0742 116.749 50.75C117.032 50.4353 117.36 50.1644 117.723 49.9464C118.093 49.7261 118.492 49.5583 118.908 49.448C119.335 49.3354 119.776 49.2789 120.218 49.28C120.724 49.2802 121.226 49.3538 121.711 49.4984C122.193 49.6404 122.643 49.8774 123.032 50.1956C123.434 50.5293 123.76 50.9457 123.987 51.4164C124.252 51.9732 124.385 52.5835 124.376 53.2C124.381 53.5786 124.331 53.9559 124.228 54.32C124.131 54.6353 123.987 54.9337 123.799 55.2048C123.613 55.4707 123.393 55.7108 123.144 55.9188C122.874 56.1445 122.587 56.3503 122.287 56.5348C122.024 56.6944 121.758 56.8484 121.492 56.994C121.236 57.1342 120.993 57.2972 120.767 57.4812C120.554 57.6534 120.373 57.862 120.232 58.0972C120.087 58.3527 120.014 58.6433 120.022 58.9372L117.835 58.9428ZM117.875 63.574V60.83H120.081V63.574H117.875Z" fill="#EBEBEB"/>
<path d="M48.8097 74.8496C48.6766 74.266 48.6595 73.6619 48.7593 73.0716C48.9061 72.4435 49.259 71.8826 49.7617 71.4784C49.9325 71.3188 50.1425 71.1368 50.3973 70.9184C50.6566 70.7008 50.8981 70.463 51.1197 70.2072C51.3444 69.946 51.525 69.65 51.6545 69.3308C51.7847 69.0062 51.812 68.6495 51.7329 68.3088C51.6853 68.0584 51.5798 67.8225 51.4249 67.62C51.2813 67.4465 51.1041 67.3037 50.9041 67.2C50.6994 67.0906 50.4746 67.0239 50.2433 67.004C50.0056 66.9819 49.766 66.9951 49.5321 67.0432C49.265 67.0971 49.0111 67.2026 48.7845 67.354C48.5762 67.4962 48.3878 67.6657 48.2245 67.858C48.0693 68.0467 47.9359 68.2525 47.8269 68.4712C47.721 68.6706 47.6274 68.8763 47.5469 69.0872L45.6401 68.2696C45.7199 67.8435 45.8704 67.4337 46.0853 67.0572C46.2954 66.6894 46.5608 66.356 46.8721 66.0688C47.1863 65.7754 47.5409 65.5284 47.9249 65.3352C48.3211 65.1374 48.7407 64.9907 49.1737 64.8984C49.6678 64.7952 50.1742 64.7631 50.6773 64.8032C51.1783 64.8423 51.6665 64.9803 52.1137 65.2092C52.5778 65.4516 52.983 65.7928 53.3009 66.2088C53.884 67.022 54.1724 68.0097 54.1185 69.0088C54.0904 69.3365 54.011 69.6577 53.8833 69.9608C53.7566 70.2612 53.5909 70.5436 53.3905 70.8008C53.1724 71.0769 52.9357 71.3379 52.6821 71.582C52.4553 71.792 52.2285 71.9964 51.9989 72.1924C51.7773 72.383 51.573 72.5929 51.3885 72.8196C51.2167 73.0335 51.0823 73.2749 50.9909 73.5336C50.9036 73.8161 50.8939 74.1169 50.9629 74.4044L48.8097 74.8496ZM49.8093 79.3716L49.2493 76.6892L51.4081 76.23L51.9681 78.9152L49.8093 79.3716Z" fill="#EBEBEB"/>
<path d="M116.142 96.5692L119.882 96.4908L121.725 96.46C122.338 96.446 122.946 96.46 123.556 96.4432L123.433 96.5692L123.416 93.436L123.556 93.576L119.84 93.5592C118.606 93.5592 117.371 93.5256 116.133 93.5116L116.212 93.436C116.212 93.9484 116.186 94.4636 116.172 94.9872L116.142 96.5692ZM116.142 96.5692L116.102 95.018C116.102 94.4972 116.072 93.968 116.066 93.436V93.3604H116.142C117.379 93.3464 118.614 93.3156 119.849 93.3128L123.556 93.296H123.696V93.436V96.5692V96.6952H123.57C122.946 96.6952 122.318 96.6952 121.697 96.6784L119.832 96.6476L116.142 96.5692Z" fill="#EBEBEB"/>
<path d="M120.277 100.52L124.018 100.442L125.86 100.411C126.473 100.397 127.081 100.411 127.691 100.394L127.568 100.52L127.554 97.3868L127.691 97.5268L123.984 97.51C122.749 97.51 121.514 97.4764 120.277 97.4624L120.355 97.3868C120.355 97.8992 120.33 98.4144 120.319 98.938L120.277 100.52ZM120.277 100.52L120.238 98.9688C120.238 98.448 120.207 97.9188 120.201 97.3868V97.3112H120.277C121.514 97.2972 122.749 97.2664 123.984 97.2636L127.691 97.2468H127.834V97.3868L127.817 100.52V100.646H127.68C127.056 100.646 126.431 100.646 125.807 100.629L123.942 100.598L120.277 100.52Z" fill="#EBEBEB"/>
<path d="M112 100.52L115.741 100.442L117.583 100.411C118.194 100.397 118.804 100.411 119.414 100.394L119.291 100.52L119.28 97.3868L119.42 97.5268L115.713 97.51C114.478 97.51 113.24 97.4764 112.006 97.4624L112.081 97.3868C112.081 97.8992 112.059 98.4144 112.045 98.938L112 100.52ZM112 100.52L111.961 98.9688C111.947 98.448 111.93 97.9188 111.924 97.3868V97.3112H112C113.235 97.2972 114.472 97.2664 115.707 97.2636L119.414 97.2468H119.554V97.3868L119.56 100.52V100.646H119.437C118.812 100.646 118.185 100.646 117.564 100.629L115.699 100.598L112 100.52Z" fill="#EBEBEB"/>
<path d="M16.4446 100.52L20.1826 100.442L22.025 100.411C22.6382 100.397 23.2486 100.411 23.859 100.394L23.733 100.52L23.719 97.3868L23.859 97.5268L20.1602 97.51C18.9226 97.51 17.6878 97.4764 16.453 97.4624L16.5286 97.3868C16.5286 97.8992 16.5034 98.4144 16.4922 98.938L16.4446 100.52ZM16.4446 100.52L16.4026 98.9688C16.4026 98.448 16.3718 97.9188 16.3662 97.3868V97.3112H16.4446C17.6794 97.2972 18.9142 97.2664 20.1518 97.2636L23.859 97.2468H23.999V97.3868L23.9822 100.52V100.646H23.859C23.2346 100.646 22.6074 100.646 21.983 100.629L20.1182 100.598L16.4446 100.52Z" fill="#EBEBEB"/>
<path d="M16.4446 13.3756L20.1826 13.2972L22.025 13.2636C22.6382 13.2636 23.2486 13.2636 23.859 13.2636L23.733 13.3896L23.719 10.2564L23.859 10.3936L20.1602 10.36C18.9226 10.36 17.6878 10.3292 16.453 10.3152L16.5286 10.2396C16.5286 10.752 16.5034 11.2672 16.4922 11.788L16.4446 13.3756ZM16.4446 13.3756L16.4026 11.8244C16.4026 11.3008 16.3718 10.7716 16.3662 10.2424V10.1668H16.4446C17.6794 10.1668 18.9142 10.122 20.1518 10.122L23.859 10.1052H23.999V10.248L23.9822 13.3812V13.5044H23.859C23.2346 13.5044 22.6074 13.5044 21.983 13.4904L20.1182 13.44L16.4446 13.3756Z" fill="#EBEBEB"/>
<path d="M12.3201 17.3264L16.0581 17.248L17.9005 17.2144C18.5137 17.2144 19.1213 17.2144 19.7345 17.2144L19.6085 17.3404V14.2072L19.7485 14.3444L16.0161 14.3136C14.7785 14.3136 13.5437 14.28 12.3201 14.28L12.3957 14.2044C12.3957 14.7168 12.3705 15.232 12.3593 15.7528L12.3201 17.3264ZM12.3201 17.3264L12.2781 15.7752C12.2781 15.2516 12.2473 14.7224 12.2417 14.1932V14.1176H12.3201C13.5549 14.1176 14.7897 14.0728 16.0273 14.0728L19.7345 14.056H19.8745V14.1988L19.8577 17.332V17.4552H19.7345C19.1073 17.4552 18.4829 17.4552 17.8585 17.4552L15.9937 17.4216L12.3201 17.3264Z" fill="#EBEBEB"/>
<path d="M120.277 13.3784L124.018 13.3L125.86 13.2692C126.473 13.2692 127.081 13.2692 127.691 13.2524L127.568 13.3784L127.554 10.2452L127.691 10.3852L123.984 10.36C122.749 10.36 121.514 10.3292 120.277 10.3152L120.355 10.2396C120.355 10.752 120.33 11.2672 120.319 11.788L120.277 13.3784ZM120.277 13.3784L120.238 11.8272C120.238 11.3036 120.207 10.7772 120.201 10.2452V10.1696H120.277C121.514 10.1556 122.749 10.1276 123.984 10.1248L127.68 10.1052H127.823V10.2452L127.809 13.3784V13.5044H127.68C127.056 13.5044 126.431 13.5044 125.807 13.5044L123.942 13.4736L120.277 13.3784Z" fill="#EBEBEB"/>
<path d="M80.1389 53.9924L76.4009 54.0708L74.5585 54.1016C73.9453 54.1156 73.3349 54.1016 72.7245 54.1184L72.8505 53.9924L72.8645 57.1256L72.7245 56.9856L76.4317 57.0052C77.6693 57.0052 78.9041 57.036 80.1389 57.05L80.0633 57.1256C80.0633 56.6132 80.0885 56.098 80.0997 55.5772L80.1389 53.9924ZM80.1389 53.9924L80.1809 55.5436C80.1809 56.0672 80.2117 56.5936 80.2173 57.1256V57.2012H80.1389C78.9041 57.2012 77.6693 57.2432 76.4317 57.246L72.7245 57.2628H72.5845V57.12L72.6013 53.9868V53.8608H72.7245C73.3489 53.8608 73.9761 53.8608 74.6005 53.8748L76.4653 53.9056L80.1389 53.9924Z" fill="#EBEBEB"/>
<path d="M76.0035 50.0416L72.2655 50.12L70.4231 50.1508C69.8099 50.1508 69.1995 50.1508 68.5891 50.1676L68.7151 50.0416L68.7291 53.1748L68.5891 53.0348L72.2963 53.0544C73.5311 53.0544 74.7687 53.0852 76.0035 53.0992L75.9279 53.1748C75.9279 52.6624 75.9503 52.1472 75.9643 51.6264L76.0035 50.0416ZM76.0035 50.0416L76.0427 51.5928C76.0567 52.1164 76.0763 52.6428 76.0791 53.1748V53.2504H76.0007C74.7659 53.2644 73.5283 53.2924 72.2935 53.2952L68.5863 53.312H68.4463V53.172L68.4631 50.0388V49.9128H68.6003C69.2247 49.9128 69.8519 49.9128 70.4763 49.9268L72.3411 49.9576L76.0035 50.0416Z" fill="#EBEBEB"/>
<path d="M10.7437 114.666L25.5585 114.598L40.3733 114.573L70.0001 114.526L99.6269 114.573L114.442 114.598L129.256 114.666L114.442 114.736L99.6269 114.761L70.0001 114.806L40.3733 114.761L25.5585 114.736L10.7437 114.666Z" fill="#263238"/>
<path d="M69.9999 129.136C97.8954 129.136 120.509 126.935 120.509 124.219C120.509 121.504 97.8954 119.302 69.9999 119.302C42.1045 119.302 19.4907 121.504 19.4907 124.219C19.4907 126.935 42.1045 129.136 69.9999 129.136Z" fill="#EBEBEB"/>
<path d="M119.56 83.8572C118.496 82.8156 117.121 81.5556 115.495 82.0064C113.966 82.4292 113.381 84.098 113.106 85.4896C112.753 87.2844 112.479 89.0932 112.193 90.8992C111.908 92.7052 111.633 94.5392 111.373 96.3732C111.224 97.4036 111.078 98.435 110.936 99.4672C110.863 99.9824 110.792 100.498 110.721 101.013C110.651 101.52 110.567 102.026 110.539 102.536C110.539 102.698 110.785 102.721 110.819 102.567C111.017 101.707 111.099 100.811 111.225 99.9404C111.351 99.0696 111.479 98.182 111.605 97.3056C111.86 95.5612 112.126 93.8196 112.387 92.0752C112.647 90.3308 112.921 88.592 113.201 86.8504C113.437 85.372 113.549 83.538 114.856 82.5636C115.212 82.3209 115.623 82.1724 116.052 82.1323C116.48 82.0921 116.912 82.1615 117.306 82.334C118.166 82.6644 118.855 83.2804 119.529 83.8908C119.56 83.9104 119.588 83.8796 119.56 83.8572Z" fill="#263238"/>
<path d="M118.113 82.7932C118.113 82.7932 115.937 82.012 114.865 83.5968C113.792 85.1816 115.075 89.2192 124.973 91.4956C124.683 88.4019 123.879 85.3783 122.593 82.5496C120.47 77.9212 116.687 79.674 118.113 82.7932Z" fill="#FFC727"/>
<path d="M124.404 90.8348C124.254 90.5579 124.088 90.2904 123.906 90.034C123.74 89.7792 123.572 89.5244 123.404 89.2724C123.278 89.082 123.147 88.8916 123.018 88.7124C123.018 88.6676 123.018 88.62 123.035 88.5724L123.068 88.3148C123.094 88.13 123.122 87.9424 123.147 87.7548C123.172 87.5672 123.206 87.388 123.242 87.1948C123.265 86.9967 123.308 86.8016 123.371 86.6124C123.371 86.5816 123.332 86.5676 123.329 86.6124C123.307 86.7247 123.278 86.8352 123.239 86.9428L123.172 87.192C123.124 87.3796 123.08 87.5672 123.038 87.752C122.996 87.9368 122.965 88.102 122.934 88.2756C122.92 88.3624 122.909 88.4464 122.898 88.5304C122.721 88.2784 122.539 88.0292 122.354 87.7856C121.828 87.094 121.274 86.4276 120.697 85.7752C120.697 85.7752 120.697 85.7752 120.697 85.7584C120.75 84.7196 120.725 83.6892 120.954 82.6784C120.954 82.6504 120.921 82.6336 120.912 82.6616C120.651 83.626 120.527 84.6222 120.543 85.6212C120.338 85.3916 120.128 85.162 119.918 84.9352C119.434 84.4172 118.944 83.9048 118.443 83.4064C118.423 83.3868 118.39 83.4064 118.409 83.4372C119.249 84.336 120.036 85.2712 120.809 86.2232C120.204 86.2134 119.599 86.2358 118.997 86.2904C118.328 86.338 117.662 86.4248 116.995 86.5172C116.964 86.5172 116.973 86.5648 116.995 86.562C117.658 86.4644 118.325 86.4046 118.994 86.3828C119.641 86.3548 120.282 86.3828 120.929 86.3828C121.347 86.898 121.759 87.4188 122.164 87.9452H122.08C121.929 87.9452 121.778 87.9452 121.626 87.9452C121.324 87.9452 121.024 87.9732 120.725 87.9984C120.11 88.0495 119.499 88.143 118.896 88.2784C118.89 88.2784 118.885 88.2808 118.881 88.285C118.876 88.2892 118.874 88.2949 118.874 88.3008C118.874 88.3067 118.876 88.3124 118.881 88.3166C118.885 88.3208 118.89 88.3232 118.896 88.3232C119.504 88.2532 120.114 88.1972 120.725 88.1748C121.005 88.1748 121.31 88.1748 121.601 88.1748H122.08C122.164 88.1862 122.249 88.1786 122.329 88.1524C122.594 88.4977 122.859 88.844 123.124 89.1912C123.334 89.4712 123.542 89.7512 123.746 90.0312C123.95 90.3112 124.144 90.6332 124.373 90.902C124.384 90.8824 124.415 90.8572 124.404 90.8348Z" fill="#263238"/>
<path d="M119.059 85.0417C118.708 84.9969 118.354 84.9801 118.001 84.9913C117.648 84.9913 117.292 84.9913 116.94 85.0137C116.909 85.0137 116.912 85.0585 116.94 85.0585C117.298 85.0305 117.656 85.0249 118.015 85.0305C118.373 85.0361 118.709 85.0697 119.054 85.0585C119.07 85.0585 119.07 85.0445 119.059 85.0417Z" fill="#263238"/>
<path d="M122.167 85.8396C122.206 85.5008 122.248 85.162 122.321 84.8288C122.321 84.8229 122.319 84.8172 122.314 84.813C122.31 84.8088 122.305 84.8064 122.299 84.8064C122.293 84.8064 122.287 84.8088 122.283 84.813C122.279 84.8172 122.276 84.8229 122.276 84.8288C122.226 85.162 122.161 85.4924 122.114 85.8256C122.089 85.9908 122.066 86.1588 122.044 86.324C122.016 86.4801 122.002 86.6386 122.005 86.7972C122.007 86.8035 122.011 86.8089 122.016 86.8128C122.021 86.8167 122.027 86.8188 122.034 86.8188C122.041 86.8188 122.047 86.8167 122.052 86.8128C122.058 86.8089 122.061 86.8035 122.063 86.7972C122.093 86.6411 122.11 86.4828 122.114 86.324C122.128 86.1616 122.147 85.9992 122.167 85.8396Z" fill="#263238"/>
<path d="M121.52 82.0932C121.434 82.4236 121.347 82.7568 121.288 83.09C121.257 83.2608 121.229 83.4316 121.207 83.6024C121.176 83.7676 121.165 83.9358 121.173 84.1036C121.173 84.1074 121.175 84.1109 121.177 84.1135C121.18 84.1162 121.183 84.1177 121.187 84.1177C121.191 84.1177 121.194 84.1162 121.197 84.1135C121.2 84.1109 121.201 84.1074 121.201 84.1036C121.24 83.9475 121.266 83.7882 121.277 83.6277C121.299 83.4625 121.324 83.3 121.352 83.1348C121.414 82.7904 121.476 82.4488 121.562 82.11C121.565 82.082 121.52 82.0652 121.52 82.0932Z" fill="#263238"/>
<path d="M108.64 102.169C108.584 101.548 108.522 100.923 108.458 100.302C108.325 99.0697 108.177 97.8386 108.013 96.6085C107.848 95.3849 107.691 94.1557 107.492 92.9349C107.42 92.364 107.294 91.8014 107.114 91.2549C107.05 91.0218 106.933 90.8064 106.773 90.6254C106.613 90.4443 106.413 90.3024 106.19 90.2105C105.025 89.8101 104.23 91.0169 103.771 91.8709C103.757 91.8961 103.793 91.9157 103.81 91.8933C104.09 91.4873 104.868 90.3533 105.753 90.4065C106.347 90.4401 106.823 90.8629 107.108 92.3441C107.82 96.0373 108.461 103.544 108.536 104.023C108.576 104.283 108.758 104.272 108.76 103.992C108.749 103.393 108.679 102.78 108.64 102.169Z" fill="#263238"/>
<path d="M104.07 91.4257C104.07 91.4257 105.09 87.8305 102.838 89.6281C99.0921 92.6213 98.9604 99.1201 98.9604 99.1201C98.9604 99.1201 105.619 95.2533 106.445 92.7025C107.68 88.9113 104.07 91.4257 104.07 91.4257Z" fill="#FFC727"/>
<path d="M105.331 93.1897C104.81 93.2961 104.278 93.3661 103.752 93.4417L103.001 93.5481C102.833 93.5705 102.662 93.5873 102.492 93.6069C102.987 92.9237 103.488 92.2433 103.964 91.5461C103.969 91.5402 103.971 91.5327 103.97 91.5253C103.969 91.518 103.965 91.5113 103.959 91.5069C103.953 91.5024 103.945 91.5005 103.938 91.5016C103.931 91.5026 103.924 91.5065 103.92 91.5125C103.523 91.9197 103.149 92.3487 102.8 92.7977L102.503 91.9577C102.391 91.6357 102.268 91.3165 102.186 90.9833C102.186 90.9553 102.136 90.9833 102.144 90.9973C102.234 91.3249 102.298 91.6637 102.388 91.9941C102.478 92.3245 102.57 92.6269 102.682 92.9377C102.438 93.2541 102.203 93.5789 101.976 93.9065C101.862 93.5817 101.719 93.2681 101.621 92.9377C101.621 92.9097 101.568 92.9237 101.576 92.9377C101.696 93.3045 101.761 93.6825 101.873 94.0577C101.719 94.2817 101.568 94.5057 101.422 94.7297C101.142 95.1469 100.898 95.5697 100.652 95.9953C100.633 96.0036 100.617 96.0178 100.606 96.036C100.595 96.0541 100.591 96.0752 100.593 96.0961C100.173 96.8241 99.7728 97.5605 99.378 98.3053C99.375 98.3105 99.3742 98.3167 99.3758 98.3224C99.3774 98.3282 99.3812 98.3331 99.3864 98.3361C99.3916 98.3391 99.3977 98.3399 99.4035 98.3383C99.4093 98.3367 99.4142 98.3329 99.4172 98.3277C99.812 97.5913 100.257 96.8745 100.708 96.1717C100.779 96.1484 100.852 96.1342 100.926 96.1297L101.156 96.0793C101.327 96.0429 101.498 95.9981 101.668 95.9561C102.007 95.8721 102.34 95.7909 102.685 95.7321C102.713 95.7321 102.699 95.6845 102.685 95.6901C102.282 95.7657 101.878 95.8133 101.47 95.8581C101.276 95.8805 101.086 95.9057 100.896 95.9365H100.868C101.105 95.5744 101.347 95.2141 101.596 94.8557C101.836 94.5057 102.086 94.1585 102.335 93.8113C102.567 93.7805 102.794 93.7189 103.024 93.6769L103.796 93.5257C104.312 93.4221 104.827 93.3073 105.345 93.2233C105.373 93.2401 105.359 93.1841 105.331 93.1897Z" fill="#263238"/>
<path d="M101.33 93.5453C101.299 93.4501 101.271 93.3549 101.24 93.2653C101.177 93.0667 101.126 92.8647 101.086 92.6605C101.086 92.6325 101.038 92.6465 101.044 92.6605C101.089 92.8649 101.136 93.0665 101.181 93.2681C101.222 93.4714 101.28 93.671 101.355 93.8645C101.359 93.8726 101.367 93.8789 101.375 93.8825C101.384 93.886 101.394 93.8865 101.403 93.8839C101.412 93.8814 101.42 93.8758 101.425 93.8682C101.431 93.8607 101.433 93.8514 101.433 93.8421C101.402 93.7469 101.36 93.6461 101.33 93.5453Z" fill="#263238"/>
<path d="M106.011 92.358C105.709 92.4028 105.403 92.4252 105.095 92.4532C104.787 92.4812 104.488 92.5204 104.183 92.568C104.166 92.568 104.166 92.596 104.183 92.5932C104.488 92.5736 104.793 92.5484 105.098 92.5092C105.403 92.47 105.706 92.4252 106.014 92.4028C106.042 92.4 106.039 92.3552 106.011 92.358Z" fill="#263238"/>
<path d="M113.526 97.6192C113.406 94.9732 113.246 92.33 112.966 89.6952C112.834 88.382 112.686 87.0716 112.501 85.7752C112.338 84.4906 112.084 83.219 111.742 81.97C111.508 80.999 111.077 80.0861 110.477 79.2876C110.18 78.8992 109.79 78.5927 109.342 78.3967C108.894 78.2008 108.404 78.122 107.918 78.1676C106.761 78.3104 105.826 79.0412 105.02 79.8336C104.115 80.724 103.286 81.6956 102.449 82.6336C102.236 82.8744 102.026 83.118 101.816 83.3616C101.8 83.384 101.83 83.4148 101.85 83.3924C102.67 82.4516 103.53 81.536 104.412 80.6624C105.235 79.8532 106.092 78.9824 107.212 78.6352C107.742 78.4671 108.309 78.4535 108.847 78.596C109.275 78.7313 109.661 78.9754 109.967 79.3044C110.611 79.9708 110.97 80.8752 111.227 81.7516C111.938 84.1848 112.193 86.7356 112.456 89.2472C112.72 91.7588 112.907 94.3572 113.036 96.922C113.165 99.4868 113.266 102.077 113.515 104.647C113.546 104.964 113.585 105.28 113.627 105.596C113.652 105.806 113.982 105.809 113.966 105.596C113.767 102.936 113.644 100.279 113.526 97.6192Z" fill="#263238"/>
<path d="M104.88 80.1137C104.88 80.1137 106.392 77.3137 104.6 76.4177C102.808 75.5217 96.8382 82.1913 95.0938 91.9465C95.0938 91.9465 104.745 87.6765 108.024 83.4205C111.303 79.1645 107.59 78.2293 104.88 80.1137Z" fill="#FFC727"/>
<path d="M106.3 82.3872C105.216 82.3872 104.132 82.306 103.049 82.3116L103.659 81.6144C103.961 81.3048 104.241 80.9756 104.499 80.6288C104.513 80.6064 104.482 80.5756 104.46 80.5924C104.165 80.8447 103.891 81.12 103.64 81.4156C103.36 81.6956 103.096 81.9924 102.828 82.2836C102.413 82.7344 102.007 83.188 101.601 83.6472C101.601 83.6024 101.601 83.5576 101.601 83.5156C101.601 83.3252 101.601 83.1348 101.601 82.9556C101.601 82.5888 101.601 82.2192 101.601 81.8524C101.601 81.1076 101.601 80.3572 101.657 79.6124C101.657 79.5844 101.615 79.5844 101.612 79.6124C101.562 80.3628 101.484 81.1076 101.447 81.8524C101.43 82.222 101.422 82.5888 101.416 82.9584C101.416 83.146 101.416 83.3364 101.416 83.5184C101.416 83.622 101.416 83.7312 101.416 83.8376C101.355 83.9104 101.288 83.9804 101.226 84.0504C100.361 85.0416 99.546 86.0636 98.734 87.1052C98.734 87.0492 98.734 86.9876 98.72 86.9316C98.72 86.8168 98.6948 86.702 98.6836 86.5872C98.6556 86.338 98.622 86.0916 98.5828 85.8424C98.5436 85.5932 98.5128 85.3776 98.4736 85.1452C98.4344 84.9128 98.3644 84.6216 98.3448 84.3584C98.346 84.355 98.3465 84.3514 98.346 84.3478C98.3456 84.3442 98.3442 84.3408 98.3422 84.3378C98.3401 84.3349 98.3374 84.3325 98.3342 84.3308C98.331 84.3291 98.3274 84.3282 98.3238 84.3282C98.3202 84.3282 98.3166 84.3291 98.3134 84.3308C98.3102 84.3325 98.3075 84.3349 98.3054 84.3378C98.3033 84.3408 98.302 84.3442 98.3016 84.3478C98.3011 84.3514 98.3015 84.355 98.3028 84.3584C98.3466 84.6217 98.3765 84.8872 98.3924 85.1536L98.4596 85.8704C98.4792 86.1084 98.5016 86.3464 98.5268 86.5872L98.5604 86.9316C98.5604 86.9876 98.5744 87.0464 98.5828 87.1024C98.5855 87.1513 98.6009 87.1986 98.6276 87.2396L98.216 87.7772C97.656 88.5024 97.1296 89.236 96.592 89.9668C96.5752 89.9892 96.6088 90.02 96.6256 89.9976C97.1352 89.334 97.6588 88.6816 98.188 88.0376C98.5856 88.0544 98.9916 88.0236 99.3892 88.018C99.7868 88.0124 100.229 88.018 100.644 88.018C100.65 88.018 100.655 88.0157 100.659 88.0115C100.664 88.0073 100.666 88.0016 100.666 87.9956C100.666 87.9897 100.664 87.984 100.659 87.9798C100.655 87.9756 100.65 87.9732 100.644 87.9732C100.224 87.9732 99.8036 87.9872 99.3864 87.99C98.9692 87.9928 98.6164 87.9732 98.2356 87.99C98.7004 87.43 99.1736 86.87 99.6356 86.296L100.184 85.68C100.345 85.701 100.507 85.7067 100.669 85.6968H101.229C101.584 85.6968 101.94 85.6968 102.298 85.6828C103.035 85.6828 103.771 85.6464 104.508 85.6436C104.511 85.6449 104.515 85.6453 104.518 85.6449C104.522 85.6444 104.525 85.6431 104.528 85.641C104.531 85.639 104.534 85.6362 104.535 85.633C104.537 85.6298 104.538 85.6263 104.538 85.6226C104.538 85.619 104.537 85.6155 104.535 85.6123C104.534 85.6091 104.531 85.6063 104.528 85.6042C104.525 85.6022 104.522 85.6009 104.518 85.6004C104.515 85.6 104.511 85.6004 104.508 85.6016C103.768 85.6016 103.032 85.5596 102.296 85.54C101.937 85.54 101.582 85.5204 101.223 85.5148H100.663C100.557 85.5148 100.445 85.5148 100.333 85.5148L101.551 84.0728C101.56 84.0665 101.568 84.0578 101.573 84.0476C101.968 83.58 102.363 83.1152 102.763 82.6476C102.819 82.586 102.875 82.5244 102.928 82.46C104.048 82.4936 105.168 82.4208 106.288 82.4432C106.33 82.432 106.33 82.3872 106.3 82.3872Z" fill="#263238"/>
<path d="M105.745 84.3053H105.482C105.476 84.3053 105.471 84.3074 105.468 84.311C105.464 84.3147 105.462 84.3197 105.462 84.3249C105.462 84.3301 105.464 84.3351 105.468 84.3388C105.471 84.3424 105.476 84.3445 105.482 84.3445H105.742C105.746 84.3428 105.749 84.3402 105.751 84.3369C105.753 84.3336 105.755 84.3297 105.755 84.3257C105.755 84.3217 105.754 84.3177 105.753 84.3141C105.751 84.3105 105.748 84.3075 105.745 84.3053Z" fill="#263238"/>
<path d="M105.16 84.3081C104.813 84.3081 104.466 84.3081 104.118 84.2857L103.6 84.2801C103.439 84.2605 103.277 84.2605 103.116 84.2801C103.111 84.2801 103.107 84.2819 103.104 84.285C103.101 84.2882 103.099 84.2924 103.099 84.2969C103.099 84.3014 103.101 84.3056 103.104 84.3088C103.107 84.3119 103.111 84.3137 103.116 84.3137C103.276 84.346 103.44 84.3573 103.603 84.3473H104.124H105.166C105.191 84.3529 105.191 84.3081 105.16 84.3081Z" fill="#263238"/>
<path d="M102.127 87.5672C101.421 87.4484 100.707 87.3838 99.9907 87.374V87.388C100.702 87.4552 101.41 87.4944 102.116 87.6092C102.144 87.6148 102.155 87.57 102.127 87.5672Z" fill="#263238"/>
<path d="M99.2236 84.4592C99.2236 84.3976 99.2096 84.336 99.2012 84.2744C99.1844 84.1344 99.162 83.9944 99.1396 83.8572C99.0976 83.5912 99.0528 83.328 99.0024 83.062C99.0024 83.0396 98.9548 83.0452 98.9576 83.062C98.9912 83.342 99.022 83.608 99.0472 83.8824L99.0808 84.2856C99.0771 84.4146 99.0951 84.5434 99.134 84.6664C99.1396 84.6748 99.1475 84.6814 99.1567 84.6856C99.1659 84.6897 99.1761 84.6911 99.1861 84.6896C99.196 84.6881 99.2054 84.6839 99.213 84.6773C99.2207 84.6707 99.2263 84.6621 99.2292 84.6524C99.2389 84.5882 99.237 84.5228 99.2236 84.4592Z" fill="#263238"/>
<path d="M113.431 76.5213C113.084 75.8773 112.644 75.0289 111.782 75.0821C111.07 75.1269 110.748 75.8521 110.597 76.4541C110.127 78.3105 110.093 80.2705 110.004 82.1745C109.808 86.1981 109.634 90.2245 109.609 94.2537C109.609 95.3737 109.609 96.4937 109.609 97.6137C109.609 98.7533 109.609 99.8985 109.687 101.035C109.687 101.058 109.696 101.079 109.712 101.095C109.728 101.11 109.749 101.119 109.771 101.119C109.794 101.119 109.815 101.11 109.831 101.095C109.846 101.079 109.855 101.058 109.855 101.035C109.855 100.061 109.827 99.0753 109.824 98.1121C109.822 97.1489 109.824 96.2109 109.841 95.2589C109.873 93.3344 109.924 91.4098 109.995 89.4853C110.068 87.5729 110.152 85.6605 110.233 83.7481C110.272 82.7933 110.314 81.8357 110.356 80.8809C110.398 79.9261 110.438 79.0301 110.544 78.1089C110.603 77.5909 110.678 77.0757 110.788 76.5689C110.841 76.1908 110.995 75.834 111.233 75.5357C111.397 75.3732 111.614 75.2749 111.845 75.2585C112.075 75.2421 112.304 75.3086 112.49 75.4461C112.885 75.7305 113.194 76.118 113.383 76.5661C113.389 76.5724 113.397 76.5761 113.406 76.5764C113.415 76.5766 113.423 76.5734 113.429 76.5675C113.436 76.5616 113.439 76.5534 113.44 76.5447C113.44 76.536 113.437 76.5276 113.431 76.5213Z" fill="#263238"/>
<path d="M113.196 76.2133C113.196 76.2133 112.487 73.7101 114.055 74.9617C116.665 77.0449 116.757 81.5781 116.757 81.5781C116.757 81.5781 112.118 78.8845 111.541 77.0981C110.681 74.4605 113.196 76.2133 113.196 76.2133Z" fill="#FFC727"/>
<path d="M115.78 79.7216C115.738 79.6516 115.694 79.5844 115.649 79.5144C115.654 79.4436 115.654 79.3724 115.649 79.3016C115.649 79.1952 115.649 79.086 115.649 78.9796C115.649 78.7668 115.649 78.554 115.671 78.344C115.671 78.338 115.669 78.3323 115.665 78.3281C115.66 78.3239 115.655 78.3216 115.649 78.3216C115.643 78.3216 115.637 78.3239 115.633 78.3281C115.629 78.3323 115.626 78.338 115.626 78.344C115.626 78.5512 115.607 78.7612 115.601 78.9684C115.601 79.072 115.601 79.1756 115.601 79.2792C115.601 79.3184 115.601 79.366 115.601 79.4136C115.419 79.1336 115.232 78.8536 115.041 78.5736C114.985 78.4924 114.926 78.414 114.87 78.3356C114.841 78.0641 114.836 77.7904 114.856 77.518C114.856 77.238 114.856 76.9356 114.873 76.6444C114.873 76.6164 114.828 76.6164 114.828 76.6444C114.828 76.9468 114.806 77.2492 114.789 77.5516C114.771 77.7667 114.765 77.9826 114.772 78.1984C114.324 77.5908 113.848 77.0028 113.372 76.4176C113.356 76.398 113.322 76.4176 113.339 76.4456C113.636 76.8236 113.921 77.21 114.201 77.602C113.655 77.4732 113.101 77.4004 112.546 77.322C112.518 77.322 112.507 77.3612 112.546 77.3668C113.134 77.4564 113.711 77.602 114.291 77.7308C114.512 78.0444 114.733 78.358 114.949 78.6744L115.212 79.0608H115.19L115.008 79.0356L114.621 79.002C114.355 78.9796 114.086 78.9656 113.818 78.9516C113.79 78.9516 113.792 78.9964 113.818 78.9964C114.081 78.9964 114.344 79.0216 114.604 79.0496L115.022 79.1L115.201 79.1224H115.254C115.402 79.3408 115.554 79.5592 115.699 79.7776C115.962 80.1668 116.198 80.5812 116.475 80.9536C116.478 80.9567 116.483 80.9586 116.488 80.959C116.492 80.9594 116.497 80.9582 116.501 80.9557C116.505 80.9532 116.508 80.9495 116.51 80.9451C116.512 80.9407 116.512 80.9358 116.511 80.9312C116.292 80.5137 116.048 80.1097 115.78 79.7216Z" fill="#263238"/>
<path d="M114.626 76.8937C114.626 76.7957 114.626 76.6977 114.626 76.5997C114.621 76.395 114.629 76.1901 114.652 75.9865C114.653 75.9831 114.653 75.9795 114.653 75.9759C114.652 75.9723 114.651 75.9689 114.649 75.9659C114.647 75.9629 114.644 75.9605 114.641 75.9588C114.638 75.9572 114.634 75.9563 114.631 75.9563C114.627 75.9563 114.624 75.9572 114.62 75.9588C114.617 75.9605 114.614 75.9629 114.612 75.9659C114.61 75.9689 114.609 75.9723 114.608 75.9759C114.608 75.9795 114.608 75.9831 114.61 75.9865C114.61 76.1909 114.587 76.3925 114.576 76.5941C114.576 76.6977 114.576 76.7985 114.576 76.8993V77.0393C114.569 77.0876 114.569 77.1366 114.576 77.1849C114.576 77.1901 114.578 77.1951 114.582 77.1988C114.585 77.2024 114.59 77.2045 114.596 77.2045C114.601 77.2045 114.606 77.2024 114.61 77.1988C114.613 77.1951 114.615 77.1901 114.615 77.1849C114.622 77.1404 114.622 77.095 114.615 77.0505L114.626 76.8937Z" fill="#263238"/>
<path d="M114.053 77.9296C113.879 77.8988 113.703 77.8904 113.529 77.8764C113.356 77.8624 113.148 77.8428 112.969 77.8176C112.963 77.8176 112.958 77.82 112.953 77.8242C112.949 77.8284 112.947 77.8341 112.947 77.84C112.947 77.846 112.949 77.8517 112.953 77.8559C112.958 77.8601 112.963 77.8624 112.969 77.8624C113.336 77.8848 113.7 77.952 114.067 77.9632C114.07 77.966 114.072 77.9324 114.053 77.9296Z" fill="#263238"/>
<path d="M115.509 77.9436C115.523 77.9632 115.509 78.0192 115.509 78.0416V78.2964C115.509 78.3552 115.509 78.414 115.509 78.4728C115.499 78.5227 115.499 78.5741 115.509 78.624C115.509 78.624 115.523 78.624 115.526 78.624C115.531 78.6001 115.531 78.5752 115.526 78.5512C115.524 78.5242 115.524 78.4971 115.526 78.47V78.2964C115.526 78.2376 115.526 78.1788 115.526 78.12V78.0416C115.526 78.0164 115.526 77.9632 115.526 77.9436C115.526 77.924 115.481 77.9016 115.509 77.9436Z" fill="#263238"/>
<path d="M113.537 89.8801C112.563 89.1493 111.686 88.0965 110.373 88.0433C109.29 88.0013 108.531 88.8161 108.097 89.7233C107.88 90.2073 107.703 90.7084 107.568 91.2213C107.372 91.9045 107.185 92.5924 107.008 93.2849C106.67 94.6457 106.38 96.0177 106.14 97.4009C106.008 98.1709 105.885 98.9437 105.787 99.7193C105.664 100.506 105.588 101.298 105.56 102.094C105.56 102.124 105.57 102.154 105.591 102.177C105.611 102.2 105.639 102.215 105.669 102.218C105.7 102.222 105.73 102.214 105.755 102.196C105.78 102.178 105.797 102.152 105.804 102.122C105.935 101.472 105.991 100.803 106.084 100.148C106.176 99.4925 106.28 98.8289 106.389 98.1737C106.613 96.867 106.872 95.5604 107.167 94.2537C107.447 93.0245 107.727 91.7785 108.116 90.5829C108.396 89.7261 108.856 88.7265 109.782 88.4185C111.182 87.9509 112.468 89.1409 113.498 89.9165C113.529 89.9305 113.56 89.8969 113.537 89.8801Z" fill="#263238"/>
<path d="M112.529 89.1801C112.529 89.1801 111.628 86.6125 112.93 86.1001C114.89 85.3469 119.98 91.0925 118.98 99.8957C118.98 99.8957 115.041 97.7257 112.129 95.2813C109.217 92.8369 108.489 89.6477 109.757 88.8245C111.026 88.0013 112.529 89.1801 112.529 89.1801Z" fill="#FFC727"/>
<path d="M118.393 98.0168C118.257 97.7096 118.099 97.4129 117.919 97.1292C117.751 96.8268 117.583 96.5272 117.41 96.2304C117.071 95.6508 116.735 95.0712 116.388 94.4944L116.217 94.2144C116.217 94.1808 116.231 94.1444 116.237 94.1108L116.295 93.856C116.34 93.6656 116.374 93.4724 116.407 93.2792C116.48 92.904 116.545 92.5232 116.645 92.1592C116.645 92.134 116.609 92.1256 116.603 92.1592C116.522 92.5344 116.402 92.9068 116.293 93.2792C116.237 93.4612 116.178 93.6404 116.13 93.8252L116.08 94.0128C115.663 93.3268 115.24 92.6436 114.775 91.9828C114.805 91.8924 114.821 91.798 114.823 91.7028C114.837 91.574 114.851 91.4452 114.867 91.3164C114.901 91.0364 114.935 90.7368 114.977 90.4484C115.061 89.8884 115.145 89.3284 115.285 88.7684C115.285 88.7404 115.248 88.732 115.243 88.7684C115.1 89.3284 114.949 89.8884 114.842 90.4484C114.792 90.7284 114.741 91.0084 114.705 91.2884C114.688 91.4284 114.671 91.5684 114.657 91.7084C114.657 91.7476 114.657 91.7924 114.641 91.8344C114.501 91.6356 114.361 91.434 114.212 91.2408C113.761 90.6472 113.294 90.0704 112.812 89.4936C112.795 89.4712 112.756 89.4936 112.776 89.5188C113.582 90.5501 114.323 91.6312 114.993 92.7556L115.377 93.38L115.248 93.3632C115.083 93.3408 114.918 93.3324 114.753 93.3156L113.756 93.2288C113.092 93.1756 112.426 93.1364 111.765 93.0664C111.737 93.0664 111.729 93.1056 111.765 93.1084C112.437 93.1868 113.103 93.2932 113.773 93.3884C114.103 93.436 114.431 93.4808 114.761 93.5228C115.011 93.5725 115.265 93.5978 115.52 93.5984C115.78 94.024 116.043 94.4384 116.304 94.8696C116.245 94.8696 116.183 94.8696 116.127 94.8696H115.178C114.75 94.8696 114.321 94.8696 113.896 94.8696C113.865 94.8696 113.871 94.9116 113.896 94.9116C114.33 94.9116 114.761 94.9396 115.195 94.962L115.811 94.9984L116.119 95.0208C116.211 95.0422 116.307 95.0422 116.399 95.0208L117.065 96.1016C117.27 96.4348 117.477 96.7652 117.687 97.0956C117.885 97.4458 118.109 97.7809 118.356 98.098C118.367 98.0588 118.404 98.0448 118.393 98.0168Z" fill="#263238"/>
<path d="M116.514 90.902C116.475 91.1858 116.416 91.4664 116.337 91.742C116.265 92.022 116.183 92.302 116.091 92.582C116.09 92.5856 116.089 92.5895 116.089 92.5933C116.089 92.5972 116.09 92.601 116.091 92.6046C116.093 92.6081 116.095 92.6112 116.098 92.6138C116.101 92.6163 116.105 92.6183 116.108 92.6194C116.112 92.6206 116.116 92.621 116.12 92.6206C116.124 92.6201 116.127 92.6189 116.131 92.617C116.134 92.6151 116.137 92.6124 116.139 92.6093C116.142 92.6062 116.143 92.6026 116.144 92.5988C116.231 92.3188 116.309 92.0388 116.377 91.7588C116.444 91.4788 116.489 91.1988 116.559 90.9048C116.559 90.8989 116.557 90.893 116.553 90.8886C116.549 90.8841 116.544 90.8814 116.538 90.881C116.532 90.8807 116.526 90.8827 116.521 90.8866C116.517 90.8905 116.514 90.8961 116.514 90.902Z" fill="#263238"/>
<path d="M113.618 92.6213C113.558 92.5705 113.482 92.5418 113.403 92.5401L113.03 92.4897C112.801 92.4589 112.568 92.4337 112.339 92.4057C111.857 92.3497 111.378 92.3021 110.897 92.2433C110.869 92.2433 110.86 92.2825 110.897 92.2853C111.35 92.3413 111.801 92.4113 112.255 92.4701L112.918 92.5569L113.24 92.5905C113.364 92.5916 113.487 92.6134 113.604 92.6549C113.608 92.6549 113.612 92.6538 113.615 92.6517C113.619 92.6495 113.621 92.6464 113.623 92.6428C113.624 92.6392 113.625 92.6352 113.624 92.6314C113.623 92.6275 113.621 92.624 113.618 92.6213Z" fill="#263238"/>
<path d="M116.508 96.4937C116.281 96.4741 116.052 96.4657 115.825 96.4601H115.481H115.315C115.244 96.467 115.172 96.467 115.1 96.4601C115.069 96.4601 115.066 96.5077 115.1 96.5021C115.167 96.4951 115.234 96.4951 115.301 96.5021H115.481L115.822 96.5245C116.049 96.5385 116.279 96.5525 116.505 96.5525C116.533 96.5413 116.536 96.4937 116.508 96.4937Z" fill="#263238"/>
<path d="M117.897 95.508L117.973 95.1216C118.018 94.8668 118.065 94.612 118.113 94.36C118.113 94.3541 118.11 94.3484 118.106 94.3442C118.102 94.34 118.096 94.3376 118.09 94.3376C118.084 94.3376 118.079 94.34 118.074 94.3442C118.07 94.3484 118.068 94.3541 118.068 94.36L117.9 95.102C117.872 95.2252 117.844 95.3484 117.819 95.4716C117.819 95.5304 117.796 95.5864 117.782 95.6452C117.765 95.7042 117.758 95.7659 117.763 95.8272C117.763 95.8329 117.765 95.8382 117.769 95.8426C117.773 95.8469 117.778 95.8501 117.783 95.8516C117.789 95.8531 117.794 95.8529 117.8 95.8511C117.805 95.8492 117.81 95.8458 117.813 95.8412C117.862 95.7365 117.89 95.6234 117.897 95.508Z" fill="#263238"/>
<path d="M104.552 101.108L104.827 104.23L105.759 114.766H114.011L115.175 104.23L115.52 101.108H104.552Z" fill="#37474F"/>
<path d="M104.552 101.108L104.827 104.23H115.175L115.52 101.108H104.552Z" fill="#263238"/>
<path d="M103.735 102.791H116.337V100.26H103.735V102.791Z" fill="#37474F"/>
<path d="M59.9201 90.7564C59.9201 86.2764 60.6518 82.2509 62.1153 78.68C63.5787 75.109 66.5971 71.9982 71.1705 69.3476C72.5443 68.5244 74.2374 67.591 76.2497 66.5476C78.3203 65.4601 80.2941 64.1974 82.1493 62.7732C84.0458 61.339 85.692 59.601 87.0213 57.6296C88.3613 55.6199 89.0559 53.249 89.0121 50.834C89.0521 49.075 88.678 47.3313 87.9201 45.7436C87.2209 44.3261 86.2406 43.0658 85.0388 42.0392C83.8046 41.0106 82.3764 40.2403 80.8389 39.774C79.2626 39.2764 77.6197 39.0224 75.9669 39.0208C74.0936 38.9951 72.234 39.3416 70.4957 40.04C68.8966 40.6989 67.3964 41.5762 66.0381 42.6468C64.7141 43.6949 63.5162 44.8929 62.4681 46.2168C61.5032 47.4202 60.6103 48.6796 59.7941 49.9884H57.7277L47.8521 41.7564C48.9943 38.9882 50.595 36.4324 52.5869 34.1964C54.5345 32.0161 56.8 30.1424 59.3069 28.6384C61.857 27.1222 64.6086 25.9741 67.4801 25.228C70.4359 24.4472 73.4808 24.0547 76.5381 24.0604C80.024 24.0623 83.4911 24.5707 86.8308 25.5696C90.1613 26.5497 93.2633 28.1831 95.9561 30.3744C98.7377 32.6769 100.986 35.5564 102.544 38.8136C104.236 42.2445 105.081 46.339 105.081 51.0972C105.124 53.7181 104.777 56.3309 104.054 58.8504C103.397 61.0297 102.4 63.0916 101.1 64.96C99.8122 66.7967 98.2901 68.4571 96.5721 69.8992C94.7065 71.4533 92.7342 72.8745 90.6697 74.1524C88.8385 75.2537 87.0091 76.3065 85.1817 77.3108C83.413 78.2757 81.7362 79.4004 80.1724 80.6708C78.6998 81.8643 77.4455 83.3043 76.4653 84.9268C75.5058 86.5284 75.0261 88.4725 75.0261 90.7592L59.9201 90.7564ZM60.2001 122.73V103.793H75.4321V122.73H60.2001Z" fill="#FFC727"/>
<g opacity="0.2">
<path d="M59.9201 90.7564C59.9201 86.2764 60.6518 82.2509 62.1153 78.68C63.5787 75.109 66.5971 71.9982 71.1705 69.3476C72.5443 68.5244 74.2374 67.591 76.2497 66.5476C78.3203 65.4601 80.2941 64.1974 82.1493 62.7732C84.0458 61.339 85.692 59.601 87.0213 57.6296C88.3613 55.6199 89.0559 53.249 89.0121 50.834C89.0521 49.075 88.678 47.3313 87.9201 45.7436C87.2209 44.3261 86.2406 43.0658 85.0388 42.0392C83.8046 41.0106 82.3764 40.2403 80.8389 39.774C79.2626 39.2764 77.6197 39.0224 75.9669 39.0208C74.0936 38.9951 72.234 39.3416 70.4957 40.04C68.8966 40.6989 67.3964 41.5762 66.0381 42.6468C64.7141 43.6949 63.5162 44.8929 62.4681 46.2168C61.5032 47.4202 60.6103 48.6796 59.7941 49.9884H57.7277L47.8521 41.7564C48.9943 38.9882 50.595 36.4324 52.5869 34.1964C54.5345 32.0161 56.8 30.1424 59.3069 28.6384C61.857 27.1222 64.6086 25.9741 67.4801 25.228C70.4359 24.4472 73.4808 24.0547 76.5381 24.0604C80.024 24.0623 83.4911 24.5707 86.8308 25.5696C90.1613 26.5497 93.2633 28.1831 95.9561 30.3744C98.7377 32.6769 100.986 35.5564 102.544 38.8136C104.236 42.2445 105.081 46.339 105.081 51.0972C105.124 53.7181 104.777 56.3309 104.054 58.8504C103.397 61.0297 102.4 63.0916 101.1 64.96C99.8122 66.7967 98.2901 68.4571 96.5721 69.8992C94.7065 71.4533 92.7342 72.8745 90.6697 74.1524C88.8385 75.2537 87.0091 76.3065 85.1817 77.3108C83.413 78.2757 81.7362 79.4004 80.1724 80.6708C78.6998 81.8643 77.4455 83.3043 76.4653 84.9268C75.5058 86.5284 75.0261 88.4725 75.0261 90.7592L59.9201 90.7564ZM60.2001 122.73V103.793H75.4321V122.73H60.2001Z" fill="black"/>
</g>
<path d="M57.865 90.7564C57.865 86.2764 58.5967 82.2509 60.0602 78.68C61.5236 75.1091 64.543 71.9983 69.1182 69.3476C70.4902 68.5244 72.1823 67.5911 74.1946 66.5476C76.2665 65.4608 78.2413 64.1981 80.097 62.7732C81.9929 61.3383 83.639 59.6005 84.969 57.6296C86.3069 55.6191 87.0004 53.2486 86.957 50.834C86.9931 49.0793 86.6172 47.3406 85.8594 45.7576C85.1602 44.3401 84.1799 43.0798 82.9782 42.0532C81.7439 41.0246 80.3157 40.2543 78.7782 39.788C77.202 39.2905 75.559 39.0365 73.9062 39.0348C72.0329 39.0038 70.1722 39.3454 68.4322 40.04C66.8323 40.6991 65.3312 41.5763 63.9718 42.6468C62.6488 43.6949 61.4517 44.8929 60.4046 46.2168C59.4389 47.4202 58.545 48.6796 57.7278 49.9884L45.7886 41.7564C46.93 38.9878 48.5308 36.4319 50.5234 34.1964C52.4702 32.0154 54.7359 30.1415 57.2434 28.6384C59.7928 27.1227 62.5434 25.9746 65.4138 25.228C68.3723 24.4463 71.4201 24.0538 74.4802 24.0604C77.9661 24.0621 81.4333 24.5705 84.773 25.5696C88.1037 26.5491 91.2058 28.1825 93.8982 30.3744C96.6804 32.6763 98.9286 35.5559 100.487 38.8136C102.178 42.2445 103.024 46.3391 103.026 51.0972C103.068 53.7183 102.72 56.3311 101.996 58.8504C101.337 61.0306 100.337 63.0927 99.0334 64.96C97.7459 66.7967 96.2238 68.4572 94.5058 69.8992C92.6413 71.4546 90.6689 72.8759 88.6034 74.1524C86.7759 75.2537 84.9466 76.3065 83.1154 77.3108C81.3467 78.2757 79.67 79.4004 78.1062 80.6708C76.6344 81.8644 75.381 83.3045 74.4018 84.9268C73.4423 86.5284 72.9616 88.4725 72.9598 90.7592L57.865 90.7564ZM58.145 122.73V103.793H73.3602V122.73H58.145Z" fill="#FFC727"/>
<path d="M51.5874 124.244C50.991 124.435 33.9866 124.216 33.3454 123.796C33.099 123.64 32.987 121.162 32.9366 118.16V118.068C32.9366 117.449 32.917 116.81 32.9142 116.166C32.9142 116.077 32.9142 115.987 32.9142 115.9C32.8918 111.572 32.959 107.078 32.959 107.078L44.3354 107.192L43.991 115.92L43.977 116.267L43.907 118.076V118.261C43.907 118.261 50.3722 121.268 51.0302 121.8C51.6882 122.332 52.1838 124.054 51.5874 124.244Z" fill="#AD6359"/>
<path d="M51.5873 124.244C50.9909 124.435 33.9865 124.216 33.3453 123.796C33.0989 123.64 32.9869 121.162 32.9365 118.16V118.068C32.9365 117.449 32.9169 116.81 32.9141 116.166C32.9141 116.077 32.9141 115.987 32.9141 115.9L43.9937 115.931L43.9797 116.278L43.9097 118.087V118.272C43.9097 118.272 50.3721 121.268 51.0301 121.8C51.6881 122.332 52.1837 124.054 51.5873 124.244Z" fill="#EBEBEB"/>
<path d="M51.5875 124.244C51.2207 124.362 44.6323 124.323 39.4747 124.177C36.2547 124.09 33.5947 123.956 33.3455 123.796C33.0963 123.637 32.9899 121.232 32.9395 118.286C32.9395 118.244 32.9395 118.202 32.9395 118.16C32.9395 118.118 32.9395 118.096 32.9395 118.065L43.9127 118.087V118.272C43.9127 118.272 50.3863 121.268 51.0415 121.803C51.6967 122.338 52.1839 124.054 51.5875 124.244Z" fill="#FFC727"/>
<path d="M51.4051 123.581C48.5379 123.474 36.9711 123.301 34.1291 123.421C34.1067 123.421 34.1067 123.438 34.1291 123.441C36.9683 123.609 48.5351 123.679 51.4023 123.628C51.4639 123.628 51.4639 123.584 51.4051 123.581Z" fill="#263238"/>
<path d="M45.1276 118.132C44.0076 117.908 42.6216 118.062 41.748 118.854C41.7144 118.885 41.748 118.933 41.7956 118.922C42.8783 118.589 43.9934 118.372 45.122 118.275C45.1387 118.272 45.1539 118.264 45.1652 118.251C45.1764 118.239 45.1829 118.223 45.1836 118.206C45.1842 118.189 45.179 118.172 45.1688 118.159C45.1586 118.145 45.144 118.136 45.1276 118.132Z" fill="#263238"/>
<path d="M45.9366 118.633C44.8166 118.409 43.4306 118.563 42.557 119.356C42.5234 119.386 42.557 119.434 42.6046 119.423C43.6837 119.091 44.795 118.874 45.9198 118.776C45.9371 118.775 45.9536 118.768 45.9663 118.757C45.979 118.745 45.9871 118.729 45.9892 118.712C45.9912 118.695 45.987 118.677 45.9774 118.663C45.9678 118.648 45.9533 118.638 45.9366 118.633Z" fill="#263238"/>
<path d="M46.7433 119.134C45.6233 118.91 44.2373 119.064 43.3637 119.857C43.3301 119.888 43.3637 119.935 43.4113 119.924C44.4942 119.592 45.6092 119.376 46.7377 119.28C46.757 119.281 46.7758 119.274 46.79 119.261C46.8042 119.248 46.8125 119.229 46.8133 119.21C46.814 119.191 46.8071 119.172 46.7939 119.158C46.7808 119.144 46.7626 119.135 46.7433 119.134Z" fill="#263238"/>
<path d="M46.6283 115.69C46.1915 115.074 45.3627 115.34 44.8867 115.73C44.0819 116.413 43.4715 117.297 43.1171 118.292C43.1152 118.296 43.1145 118.3 43.1148 118.305C43.1152 118.31 43.1167 118.314 43.1192 118.318C43.1217 118.322 43.1251 118.325 43.1291 118.327C43.1332 118.33 43.1377 118.331 43.1423 118.331C43.1423 118.418 43.2207 118.51 43.3187 118.474C44.2539 118.14 45.2955 117.914 46.1019 117.292C46.5723 116.936 47.0399 116.276 46.6283 115.69ZM44.6319 117.678C44.1755 117.855 43.7135 118.006 43.2655 118.196C43.6127 117.698 43.9347 117.188 44.3323 116.724C44.5208 116.499 44.7227 116.286 44.9371 116.085C45.2787 115.786 46.6171 115.153 46.3987 116.388C46.2811 117.068 45.1779 117.471 44.6319 117.678Z" fill="#263238"/>
<path d="M40.2526 117.958C41.1766 118.367 42.2462 118.362 43.2346 118.471C43.3354 118.471 43.3886 118.373 43.3718 118.289C43.3761 118.287 43.3801 118.285 43.3834 118.282C43.3867 118.279 43.3893 118.275 43.3909 118.27C43.3925 118.266 43.3931 118.261 43.3927 118.257C43.3923 118.252 43.3909 118.248 43.3886 118.244C42.8128 117.359 42.0155 116.64 41.0758 116.158C40.5158 115.878 39.6534 115.822 39.3734 116.522C39.0934 117.222 39.7122 117.72 40.2526 117.958ZM39.7542 117.146C39.2614 115.996 40.709 116.306 41.1066 116.519C41.3634 116.662 41.6095 116.823 41.843 117.001C42.3226 117.372 42.7824 117.768 43.2206 118.188C42.739 118.104 42.2546 118.065 41.7702 117.998C41.1934 117.922 40.0398 117.782 39.7598 117.146H39.7542Z" fill="#263238"/>
<path d="M39.48 124.177C36.26 124.09 33.6 123.956 33.3508 123.796C33.1016 123.637 32.9952 121.232 32.9448 118.286C34.2608 119.465 37.5424 122.391 39.48 124.177Z" fill="#263238"/>
<path d="M29.4673 58.0944C29.4673 58.0944 32.0209 86.828 32.4353 89.0204C32.5333 89.5216 32.5921 92.2376 32.6313 95.7264C32.7181 103.345 32.6677 117.082 32.6677 117.082H44.6545C44.6545 117.082 44.2989 93.282 43.7669 88.9C43.2349 84.518 39.8469 58.1 39.8469 58.1L29.4673 58.0944Z" fill="#37474F"/>
<path d="M44.1112 114.993C42.2408 114.954 42.7784 114.94 40.908 114.92C39.9924 114.92 33.978 114.862 33.1212 115.002C33.116 115.002 33.111 115.004 33.1073 115.007C33.1036 115.011 33.1016 115.016 33.1016 115.021C33.1016 115.026 33.1036 115.031 33.1073 115.035C33.111 115.039 33.116 115.041 33.1212 115.041C33.978 115.181 39.9924 115.13 40.908 115.119C42.7784 115.102 42.2408 115.088 44.1112 115.049C44.1186 115.049 44.1257 115.046 44.131 115.041C44.1362 115.036 44.1392 115.029 44.1392 115.021C44.1392 115.014 44.1362 115.007 44.131 115.001C44.1257 114.996 44.1186 114.993 44.1112 114.993Z" fill="#263238"/>
<path d="M34.9441 101.388C34.9291 99.6483 34.9161 97.9095 34.9049 96.1716C34.9049 94.4916 34.9049 92.8116 34.8153 91.1316C34.6529 87.724 33.9753 84.3752 33.4713 81.0068C32.9673 77.6384 32.5697 74.256 32.1973 70.8708C31.7801 67.074 31.4133 63.2688 31.0241 59.4692C31.0241 59.444 30.9793 59.444 30.9821 59.4692C31.5421 66.2564 32.1777 73.0408 33.1157 79.786C33.3509 81.466 33.6066 83.1404 33.8829 84.8092C34.1629 86.4892 34.4429 88.1916 34.5745 89.9024C34.7061 91.6132 34.7257 93.2624 34.7425 94.9424C34.763 96.6821 34.7807 98.42 34.7957 100.156C34.8321 104.014 34.8685 109.956 34.9077 113.814C34.9106 113.827 34.9178 113.839 34.9283 113.848C34.9387 113.856 34.9517 113.86 34.9651 113.86C34.9784 113.86 34.9914 113.856 35.0019 113.848C35.0123 113.839 35.0196 113.827 35.0225 113.814C35.0001 110.354 34.9693 104.829 34.9441 101.388Z" fill="#263238"/>
<path d="M26.939 58.0944C26.939 58.0944 32.021 86.828 32.4354 89.0204C32.5334 89.5216 32.5922 92.2376 32.6314 95.7264L38.3602 58.0944H26.939Z" fill="#263238"/>
<path d="M37.6682 125.258C37.0606 125.406 20.1122 123.981 19.5018 123.519C19.2666 123.346 19.331 120.865 19.5018 117.869C19.5018 117.838 19.5018 117.804 19.5018 117.774C19.5354 117.158 19.5718 116.522 19.6166 115.878L19.6334 115.598C19.9134 111.278 20.3026 106.8 20.3026 106.8L31.6398 107.736L30.6794 116.416L30.643 116.76L30.447 118.56L30.4274 118.745C30.4274 118.745 36.6686 122.192 37.2874 122.772C37.9062 123.351 38.2758 125.11 37.6682 125.258Z" fill="#AD6359"/>
<path d="M37.6682 125.258C37.0606 125.406 20.1122 123.981 19.5018 123.519C19.2666 123.346 19.331 120.865 19.5018 117.869C19.5018 117.838 19.5018 117.804 19.5018 117.774C19.5354 117.158 19.5718 116.522 19.6166 115.878L19.6334 115.598L30.6794 116.413L30.643 116.757L30.447 118.558L30.4274 118.742C30.4274 118.742 36.6686 122.189 37.2874 122.769C37.9062 123.348 38.2758 125.11 37.6682 125.258Z" fill="#EBEBEB"/>
<path d="M37.6682 125.258C37.0606 125.406 20.1122 123.981 19.5018 123.519C19.2666 123.346 19.331 120.865 19.5018 117.869C19.5018 117.838 19.5018 117.804 19.5018 117.774L30.447 118.572L30.4274 118.756C30.4274 118.756 36.6686 122.203 37.2874 122.783C37.9062 123.362 38.2758 125.11 37.6682 125.258Z" fill="#FFC727"/>
<path d="M37.5201 124.583C34.6697 124.272 23.1421 123.292 20.3001 123.2C20.2777 123.2 20.2749 123.217 20.3001 123.22C23.1169 123.589 34.6529 124.477 37.5173 124.62C37.5873 124.634 37.5929 124.6 37.5201 124.583Z" fill="#263238"/>
<path d="M31.6568 118.703C30.5368 118.401 29.162 118.457 28.2352 119.185C28.1988 119.213 28.2352 119.266 28.2772 119.258C29.3792 119 30.5057 118.863 31.6372 118.846C31.6547 118.846 31.6716 118.839 31.6848 118.828C31.6979 118.816 31.7065 118.8 31.7089 118.783C31.7113 118.766 31.7073 118.748 31.6977 118.733C31.6882 118.719 31.6736 118.708 31.6568 118.703Z" fill="#263238"/>
<path d="M32.4298 119.26C31.3098 118.958 29.9322 119.014 29.0054 119.742C28.9718 119.77 29.0054 119.823 29.0474 119.815C30.1495 119.558 31.2759 119.42 32.4074 119.403C32.4252 119.404 32.4426 119.398 32.4563 119.387C32.47 119.375 32.4791 119.359 32.4819 119.342C32.4847 119.324 32.4809 119.306 32.4713 119.291C32.4617 119.276 32.4469 119.265 32.4298 119.26Z" fill="#263238"/>
<path d="M33.1998 119.818C32.0798 119.515 30.7022 119.571 29.7754 120.299C29.7418 120.327 29.7754 120.38 29.8202 120.372C30.9222 120.115 32.0487 119.977 33.1802 119.96C33.1977 119.96 33.2146 119.954 33.2278 119.942C33.241 119.931 33.2495 119.915 33.2519 119.898C33.2543 119.88 33.2503 119.863 33.2407 119.848C33.2312 119.833 33.2166 119.822 33.1998 119.818Z" fill="#263238"/>
<path d="M33.3199 116.376C32.9307 115.73 32.0851 115.934 31.5811 116.29C30.7247 116.913 30.0485 117.751 29.6211 118.72C29.6211 118.742 29.6211 118.756 29.6435 118.762C29.6409 118.784 29.6435 118.806 29.6511 118.827C29.6586 118.847 29.671 118.866 29.6871 118.881C29.7031 118.896 29.7225 118.907 29.7437 118.913C29.7648 118.919 29.7871 118.92 29.8087 118.916C30.7635 118.65 31.8219 118.485 32.6675 117.933C33.1827 117.6 33.6951 116.987 33.3199 116.376ZM31.1891 118.216C30.7215 118.359 30.2511 118.476 29.7891 118.636C30.1542 118.15 30.5439 117.682 30.9567 117.236C31.1596 117.024 31.3766 116.825 31.6063 116.642C31.9675 116.362 33.3451 115.828 33.0427 117.046C32.8831 117.723 31.7519 118.048 31.1947 118.216H31.1891Z" fill="#263238"/>
<path d="M26.8071 118.185C27.7003 118.658 28.7671 118.728 29.7443 118.905C29.8451 118.924 29.9067 118.821 29.8955 118.737C29.8998 118.735 29.9038 118.733 29.9071 118.73C29.9104 118.727 29.9129 118.723 29.9145 118.718C29.9161 118.714 29.9168 118.709 29.9164 118.705C29.916 118.7 29.9146 118.696 29.9123 118.692C29.4024 117.768 28.6577 116.996 27.7535 116.452C27.2215 116.141 26.3535 116.015 26.0315 116.693C25.7095 117.37 26.2863 117.908 26.8071 118.185ZM26.3675 117.345C25.9559 116.161 27.3783 116.572 27.7675 116.813C28.0126 116.975 28.2465 117.154 28.4675 117.348C28.9198 117.753 29.3506 118.181 29.7583 118.63C29.2823 118.513 28.8035 118.437 28.3247 118.35C27.7479 118.213 26.5999 117.995 26.3675 117.34V117.345Z" fill="#263238"/>
<path d="M30.9317 117.729L18.9561 117.222C18.9561 117.222 22.2265 90.9412 22.2853 89.32C22.4421 85.12 25.2281 58.0748 25.2281 58.0748H39.8553C39.8553 58.0748 38.9313 64.3216 37.3549 68.2808C36.2938 68.6522 35.2693 69.1209 34.2945 69.6808C34.2945 69.6808 32.9225 87.57 32.8721 89.8016C32.7601 94.22 30.9317 117.729 30.9317 117.729Z" fill="#37474F"/>
<path d="M30.6126 115.534C28.7478 115.416 29.2854 115.424 27.415 115.326C26.5022 115.279 20.4934 114.974 19.6338 115.077C19.6142 115.077 19.6142 115.111 19.6338 115.116C20.4738 115.293 26.4966 115.497 27.4094 115.525C29.2798 115.587 28.745 115.55 30.6154 115.59C30.6229 115.589 30.6298 115.586 30.6348 115.58C30.6398 115.575 30.6424 115.568 30.642 115.56C30.6417 115.553 30.6384 115.546 30.6328 115.541C30.6273 115.536 30.6201 115.533 30.6126 115.534Z" fill="#263238"/>
<path d="M26.3007 59.6876C25.7575 66.5 25.2003 73.3152 24.5759 80.1276C23.9515 86.94 23.2207 93.7804 22.3359 100.582C21.8403 104.376 21.2803 109.726 20.6895 113.512C20.6895 113.537 20.7231 113.548 20.7287 113.512C21.9355 106.792 22.8231 98.4368 23.5763 91.6468C24.3295 84.8568 24.9483 78.0472 25.4999 71.2376C25.8107 67.3848 26.0907 63.5292 26.3875 59.6764C26.3903 59.64 26.3203 59.64 26.3007 59.6876Z" fill="#263238"/>
<path d="M37.8755 68.0176C36.635 68.4719 35.4367 69.034 34.2943 69.6976C34.2846 69.702 34.2771 69.7101 34.2735 69.7201C34.2698 69.7301 34.2702 69.7411 34.2747 69.7508C34.2791 69.7604 34.2872 69.7679 34.2972 69.7716C34.3072 69.7753 34.3182 69.7748 34.3279 69.7704C35.5347 69.2524 36.7639 68.7568 37.9399 68.1716C37.9603 68.163 37.9765 68.1467 37.9849 68.1262C37.9933 68.1058 37.9932 68.0828 37.9847 68.0624C37.9761 68.0419 37.9598 68.0258 37.9394 68.0174C37.9189 68.009 37.8959 68.009 37.8755 68.0176Z" fill="#263238"/>
<path d="M38.2594 59.738C38.2594 59.696 38.1837 59.6876 38.1837 59.738C38.1837 61.1688 38.1025 62.4288 37.9821 63.77C37.9261 64.3916 37.4222 67.8244 36.347 67.5752C36.1678 67.5332 36.067 67.354 36.0474 67.0824C36.0494 66.7267 36.0974 66.3729 36.1902 66.0296C36.3078 65.31 36.4058 64.5904 36.4702 63.8624C36.5953 62.5102 36.5802 61.1487 36.4254 59.7996C36.4232 59.792 36.4186 59.7853 36.4123 59.7805C36.406 59.7757 36.3983 59.7732 36.3904 59.7732C36.3824 59.7732 36.3747 59.7757 36.3684 59.7805C36.3621 59.7853 36.3575 59.792 36.3554 59.7996C36.3872 61.6718 36.2777 63.5438 36.0278 65.3996C35.8934 66.2928 35.4426 67.6396 36.3778 67.774C37.313 67.9084 37.9458 65.6628 38.0578 65.0468C38.3549 63.2934 38.4227 61.5088 38.2594 59.738Z" fill="#263238"/>
<path d="M36.3746 67.662C36.2777 67.8931 36.1973 68.1307 36.1338 68.3732C36.0631 68.56 36.0289 68.7586 36.033 68.9584C36.033 68.9976 36.0862 69.0004 36.1058 68.9752C36.2172 68.8021 36.3021 68.6133 36.3578 68.4152C36.439 68.194 36.5258 67.9756 36.6014 67.7516C36.6133 67.7215 36.6128 67.6879 36.5999 67.6583C36.587 67.6286 36.5629 67.6052 36.5328 67.5934C36.5028 67.5815 36.4692 67.582 36.4395 67.5949C36.4099 67.6078 36.3865 67.6319 36.3746 67.662Z" fill="#263238"/>
<path d="M31.4973 60.8608C31.5007 60.7112 31.4857 60.5616 31.4525 60.4156C31.4504 60.4115 31.4472 60.4081 31.4432 60.4057C31.4393 60.4033 31.4347 60.402 31.4301 60.402C31.4255 60.402 31.4209 60.4033 31.417 60.4057C31.413 60.4081 31.4098 60.4115 31.4077 60.4156C31.3781 60.5424 31.3612 60.6719 31.3573 60.802C31.3573 60.9504 31.3237 61.082 31.3069 61.2444C31.2758 61.5473 31.2234 61.8477 31.1501 62.1432C31.0138 62.7012 30.7294 63.2119 30.3269 63.6216C29.9255 64.0166 29.4496 64.3278 28.9269 64.5372C28.3484 64.7421 27.7585 64.9132 27.1601 65.0496C27.1542 65.0496 27.1485 65.052 27.1443 65.0562C27.1401 65.0604 27.1377 65.0661 27.1377 65.072C27.1377 65.078 27.1401 65.0837 27.1443 65.0879C27.1485 65.0921 27.1542 65.0944 27.1601 65.0944C27.8226 65.0931 28.4786 64.9638 29.0921 64.7136C29.6359 64.5096 30.1309 64.1939 30.5453 63.7868C30.9589 63.3663 31.2495 62.8405 31.3853 62.2664C31.4538 61.9705 31.4932 61.6685 31.5029 61.3648C31.5108 61.1969 31.509 61.0286 31.4973 60.8608Z" fill="#263238"/>
<path d="M45.8136 33.4824C46.7152 34.5716 47.6952 37.5144 47.6588 38.318C47.6224 39.1216 42.6692 40.9472 41.9692 40.5104C41.2692 40.0736 38.514 36.1816 38.4888 34.7396C38.4636 33.2976 44.8784 32.3568 45.8136 33.4824Z" fill="#AD6359"/>
<path d="M38.36 31.4832C37.9064 31.01 36.4392 29.596 35.7868 30.2344C35.378 30.632 36.3636 31.7212 36.778 32.1524C37.632 33.0372 38.2928 34.6024 38.6008 35.3668C38.9088 36.1312 40.3508 34.622 40.3508 34.622C40.3508 34.622 39.5444 32.7124 38.36 31.4832Z" fill="#AD6359"/>
<path d="M39.5638 36.2208C39.5638 36.2208 40.0706 37.5816 40.8966 37.5508C41.7226 37.52 41.5126 36.3496 41.5014 36.2656C41.5266 36.3384 42.025 37.576 42.8538 37.4612C43.6826 37.3464 43.3298 36.1956 43.3046 36.1228C43.3494 36.1816 43.9878 36.9628 44.5954 36.7304C45.6426 36.3328 44.0718 34.2972 44.223 33.404C44.223 33.404 45.7686 33.4908 45.8134 33.4824C45.8134 33.4824 44.3574 31.5224 43.1394 31.3768C42.9621 31.3522 42.7818 31.3895 42.6288 31.4823C42.4758 31.5751 42.3595 31.7178 42.2994 31.8864C42.2994 31.8864 41.899 31.2004 41.2438 31.2704C40.9078 31.3068 40.667 31.878 40.667 31.878C40.5688 31.7272 40.4307 31.6066 40.2681 31.5295C40.1055 31.4524 39.9247 31.4218 39.7458 31.4412C39.2838 31.5168 39.0542 32.0936 39.029 32.3176C38.833 34.0312 39.5638 36.2208 39.5638 36.2208Z" fill="#AD6359"/>
<path d="M39.0826 32.1608C39.0826 32.1608 39.063 32.1608 39.0602 32.1608C38.8078 33.5524 38.9845 34.9879 39.567 36.2768C39.5866 36.316 39.6594 36.302 39.6454 36.2544C39.2612 34.9242 39.0716 33.5453 39.0826 32.1608Z" fill="#263238"/>
<path d="M40.6646 31.8584C40.6646 31.8416 40.6394 31.8416 40.6366 31.8584C40.3755 33.3951 40.6735 34.9745 41.4766 36.3104C41.5074 36.358 41.5802 36.3692 41.5494 36.3104C41.037 35.3808 40.6366 33.1548 40.6646 31.8584Z" fill="#263238"/>
<path d="M43.4003 36.1956C42.6331 34.8796 42.3615 33.4516 42.2971 31.9424C42.2971 31.9228 42.2691 31.9256 42.2635 31.9424C42.0955 32.69 42.2383 33.6448 42.4119 34.3812C42.5606 35.0662 42.8859 35.7004 43.3555 36.2208C43.3695 36.2432 43.4003 36.2236 43.4003 36.1956Z" fill="#263238"/>
<path d="M39.564 36.2208C39.6858 36.4723 39.8301 36.7122 39.9952 36.9376C40.1467 37.1634 40.3554 37.3451 40.6 37.464C40.7162 37.5087 40.8449 37.5087 40.9612 37.464C41.0801 37.4215 41.1861 37.3492 41.2692 37.254C41.3426 37.1521 41.394 37.0359 41.42 36.913C41.446 36.79 41.4461 36.663 41.4204 36.54L41.3168 35.9352L41.6248 36.4672C41.7594 36.7051 41.9315 36.9197 42.1344 37.1028C42.223 37.1928 42.3298 37.2628 42.4476 37.3082C42.5654 37.3536 42.6915 37.3733 42.8176 37.366C42.935 37.3589 43.0464 37.3117 43.1331 37.2321C43.2198 37.1526 43.2764 37.0456 43.2936 36.9292C43.3261 36.6675 43.2924 36.4018 43.1956 36.1564L42.9464 35.4732L43.4028 36.0332C43.5297 36.1896 43.6755 36.3297 43.8368 36.4504C43.9864 36.5689 44.1675 36.6409 44.3576 36.6576C44.4433 36.6616 44.5285 36.6417 44.6036 36.6001C44.6787 36.5586 44.7409 36.4971 44.7832 36.4224C44.8492 36.2434 44.8637 36.0494 44.8252 35.8624C44.7449 35.4493 44.6326 35.043 44.4892 34.6472C44.422 34.4456 44.3548 34.2412 44.2988 34.034C44.2301 33.8306 44.2053 33.615 44.226 33.4012C44.2297 33.6129 44.2734 33.8219 44.3548 34.0172C44.4276 34.216 44.5088 34.412 44.59 34.6108C44.7637 35.0069 44.8996 35.4184 44.996 35.84C45.0536 36.0666 45.0438 36.305 44.968 36.526C44.9133 36.642 44.8257 36.7393 44.7162 36.806C44.6067 36.8727 44.4801 36.9058 44.352 36.9012C44.1153 36.8879 43.8881 36.804 43.6996 36.6604C43.5173 36.53 43.3526 36.3766 43.2096 36.204L43.4168 36.0808C43.5375 36.368 43.5809 36.6817 43.5428 36.9908C43.5172 37.1629 43.4319 37.3205 43.302 37.436C43.1724 37.5439 43.0134 37.6102 42.8456 37.6264C42.6855 37.6363 42.5251 37.6117 42.3754 37.5542C42.2256 37.4967 42.0899 37.4077 41.9776 37.2932C41.7524 37.0914 41.563 36.8528 41.4176 36.5876L41.622 36.5148C41.6482 36.6684 41.6407 36.8257 41.6001 36.9761C41.5595 37.1265 41.4867 37.2662 41.3868 37.3856C41.2789 37.4982 41.1439 37.5811 40.9948 37.6264C40.8429 37.6733 40.679 37.6613 40.5356 37.5928C40.2781 37.452 40.0655 37.2414 39.9224 36.9852C39.7744 36.7448 39.6541 36.4884 39.564 36.2208Z" fill="#263238"/>
<path d="M41.3842 39.9308C41.3842 39.9308 36.0446 37.2008 38.1362 35.6384C38.755 35.1736 41.8602 34.006 42.1066 34.6248C42.4258 35.4228 41.219 36.1536 40.3902 36.4896C40.3902 36.4896 42.3362 37.1644 42.2718 38.6568C42.2556 38.9304 42.1641 39.1941 42.0075 39.4189C41.8509 39.6437 41.6352 39.8209 41.3842 39.9308Z" fill="#AD6359"/>
<path d="M37.9707 35.7783C38.1911 35.5664 38.4422 35.3889 38.7155 35.2519C38.9871 35.1072 39.2677 34.98 39.5555 34.8711C40.1272 34.6466 40.7175 34.4723 41.3195 34.3503C41.4796 34.3168 41.6438 34.3073 41.8067 34.3223C41.9053 34.3284 42.0011 34.3572 42.0867 34.4063C42.1312 34.4321 42.1709 34.4653 42.2043 34.5043C42.2373 34.5433 42.2629 34.5879 42.2799 34.6359C42.3443 34.8084 42.3443 34.9983 42.2799 35.1707C42.2209 35.3281 42.1336 35.4733 42.0223 35.5991C41.8113 35.8379 41.5602 36.0378 41.2803 36.1899C41.011 36.3441 40.7302 36.477 40.4403 36.5875V36.3887C40.6597 36.4744 40.8706 36.5803 41.0703 36.7051C41.2712 36.8262 41.4588 36.9679 41.6303 37.1279C41.7992 37.2924 41.9427 37.4811 42.0559 37.6879C42.1705 37.8894 42.2456 38.1108 42.2771 38.3403C42.2178 38.122 42.1232 37.9149 41.9971 37.7271C41.8683 37.5453 41.7157 37.3814 41.5435 37.2399C41.3706 37.0955 41.1829 36.9697 40.9835 36.8647C40.7897 36.758 40.5863 36.6699 40.3759 36.6015L40.1155 36.5203L40.3675 36.4027C40.6405 36.2845 40.9053 36.1479 41.1599 35.9939C41.4115 35.8488 41.6383 35.6645 41.8319 35.4479C41.9246 35.3583 41.9929 35.2463 42.0301 35.1228C42.0674 34.9993 42.0724 34.8683 42.0447 34.7423C41.9831 34.5463 41.6499 34.5547 41.3671 34.5967C41.0843 34.6387 40.7847 34.7143 40.4907 34.7871C40.1967 34.8599 39.9083 34.9411 39.6199 35.0335C39.0349 35.1948 38.4785 35.4461 37.9707 35.7783Z" fill="#263238"/>
<path d="M35.2382 43.7948C39.959 49.6216 46.8218 53.396 48.5158 52.1668C50.2098 50.9376 44.5006 44.5032 44.4026 44.408C44.0694 44.0888 41.5438 42.7756 36.9574 40.8436C32.4578 38.948 33.1298 41.1936 35.2382 43.7948Z" fill="#AD6359"/>
<path d="M42.28 43.12L38.724 47.796C38.724 47.796 35.7392 44.716 34.16 42.6776C32.5808 40.6392 32.7376 39.0544 36.2712 40.3704C38.3398 41.1362 40.3483 42.0552 42.28 43.12Z" fill="#FFC727"/>
<path d="M38.3852 46.7236C38.8192 46.0852 39.2728 45.458 39.7376 44.8448C39.97 44.5424 40.194 44.2344 40.432 43.9348C40.67 43.6352 40.9416 43.3356 41.1852 43.0276C41.202 43.0052 41.2356 43.0276 41.2188 43.05C40.9948 43.358 40.7932 43.68 40.5692 43.988C40.3452 44.296 40.0988 44.6152 39.8608 44.9288C39.3923 45.5448 38.9097 46.1496 38.4132 46.7432C38.3992 46.76 38.36 46.7432 38.3852 46.7236Z" fill="#263238"/>
<path d="M40.4266 45.5504L38.7242 47.7904C38.7242 47.7904 35.7394 44.7104 34.1602 42.672L34.009 42.4732L33.9446 42.3808L33.8466 42.238C33.7626 42.1148 33.687 41.9944 33.6198 41.8768C33.5946 41.8348 33.5722 41.7928 33.5498 41.7508C33.433 41.5383 33.3391 41.314 33.2698 41.0816C33.2491 41.01 33.2332 40.937 33.2222 40.8632C33.2222 40.8268 33.2222 40.7932 33.2222 40.7596C34.7734 41.8348 38.4134 44.1896 40.4266 45.5504Z" fill="#263238"/>
<path d="M40.5693 60.9644C40.5693 60.9644 24.3657 61.2444 24.2705 61.1436C24.0185 60.8636 27.2917 44.1784 30.6769 40.74C31.8725 39.5248 34.3393 40.0204 34.7509 40.2192C35.7001 40.6784 36.5933 41.6696 37.3409 43.5064C38.8361 47.18 40.7737 60.7012 40.5693 60.9644Z" fill="#FFC727"/>
<path opacity="0.1" d="M35.5599 40.768H30.6515L30.6767 40.74C30.7909 40.6245 30.9177 40.5221 31.0547 40.4348H35.1287C35.2812 40.534 35.4254 40.6455 35.5599 40.768ZM36.1003 41.328H30.1895C30.1111 41.4316 30.0355 41.5436 29.9599 41.6612H36.3579C36.2767 41.5436 36.1927 41.44 36.1199 41.328H36.1003ZM36.7107 42.2212H29.6211C29.5595 42.3304 29.4979 42.4424 29.4391 42.5572H36.9011C36.8423 42.4424 36.7807 42.3276 36.7163 42.2212H36.7107ZM37.1671 43.1172H29.1563L28.9967 43.4504H37.3155C37.2707 43.3356 37.2231 43.2236 37.1727 43.12L37.1671 43.1172ZM37.5227 44.0104H28.7503L28.6075 44.3436H37.6375C37.6011 44.24 37.5647 44.1168 37.5199 44.0104H37.5227ZM37.8027 44.9036H28.3807C28.3387 45.0156 28.2939 45.1248 28.2491 45.2396H37.9007L37.8027 44.9036ZM38.0435 45.7968H28.0419C28.0027 45.9088 27.9607 46.018 27.9215 46.1328H38.1331C38.0976 46.0189 38.0696 45.9069 38.0491 45.7968H38.0435ZM38.2619 46.6928H27.7199C27.6807 46.802 27.6443 46.914 27.6079 47.026H38.3375L38.2619 46.6928ZM38.4635 47.586H27.4399C27.4035 47.6952 27.3699 47.8072 27.3335 47.9192H38.5559C38.5167 47.8072 38.4943 47.6952 38.4691 47.6L38.4635 47.586ZM38.6539 48.4792H27.1599C27.1235 48.5884 27.0899 48.7004 27.0563 48.8152H38.7435C38.7071 48.7032 38.6847 48.5912 38.6595 48.4792H38.6539ZM38.8359 49.3724H26.8799C26.8463 49.4844 26.8127 49.5964 26.7819 49.7084H38.9199L38.8359 49.3724ZM39.0095 50.2684H26.6167C26.5831 50.3804 26.5523 50.4896 26.5215 50.6016H39.0767C39.0571 50.4896 39.0375 50.3776 39.0151 50.2684H39.0095ZM39.1747 51.1616H26.3675C26.3367 51.2736 26.3059 51.3856 26.2779 51.4948H39.2419C39.2223 51.3828 39.1999 51.2736 39.1803 51.1616H39.1747ZM39.3343 52.0548H26.1295C26.0987 52.1668 26.0707 52.2788 26.0427 52.3908H39.3987C39.3819 52.2788 39.3623 52.1668 39.3399 52.0548H39.3343ZM39.4939 52.9508H25.8971C25.8719 53.0628 25.8439 53.172 25.8159 53.284H39.5527C39.5359 53.1748 39.5163 53.0628 39.4995 52.9508H39.4939ZM39.6395 53.844H25.6759C25.6507 53.956 25.6227 54.068 25.5975 54.1772H39.7011C39.6843 54.068 39.6647 53.956 39.6451 53.844H39.6395ZM39.7851 54.7372H25.4631C25.4379 54.852 25.4127 54.964 25.3847 55.0732H39.8439C39.8271 54.9612 39.8103 54.852 39.7907 54.7372H39.7851ZM39.9279 55.6304H25.2587C25.2335 55.7424 25.2083 55.8572 25.1831 55.9664H39.9811C39.9643 55.8572 39.9475 55.7452 39.9335 55.6304H39.9279ZM40.0595 56.5264H25.0599C25.0375 56.6384 25.0123 56.7504 24.9899 56.8596H40.1099L40.0595 56.5264ZM40.1883 57.4196H24.8695C24.8471 57.5344 24.8247 57.6436 24.8023 57.7528H40.2415C40.2247 57.6436 40.2107 57.5316 40.1939 57.4196H40.1883ZM40.3115 58.3128H24.6931C24.6669 58.4285 24.6445 58.5405 24.6259 58.6488H40.3619C40.3479 58.5396 40.3199 58.4276 40.3199 58.3128H40.3115ZM40.4235 59.206H24.5223C24.4999 59.3236 24.4803 59.4356 24.4607 59.542H40.4711C40.4599 59.4356 40.4459 59.3236 40.4291 59.206H40.4235ZM40.5271 60.102H24.3599C24.3403 60.2224 24.3263 60.3344 24.3095 60.4352H40.5495C40.5551 60.3372 40.5439 60.2252 40.5327 60.102H40.5271ZM24.2535 60.9952C24.241 61.0439 24.241 61.0949 24.2535 61.1436C24.3291 61.2192 34.3783 61.0652 38.6595 60.9952H24.2535Z" fill="#030402"/>
<path d="M31.6008 42.7616C30.5088 44.2596 24.9088 50.4504 24.7016 51.0244C24.4944 51.5984 25.7908 52.8668 25.7684 53.1048C25.6844 54.0736 23.5928 60.5192 22.7556 59.864C21.6524 59.0016 16.982 52.8248 17.6428 50.1508C18.3036 47.4768 29.2096 41.0564 30.94 40.4992C32.6704 39.942 32.6788 41.2832 31.6008 42.7616Z" fill="#AD6359"/>
<path d="M27.2018 48.398L24.021 43.932C24.021 43.932 27.5798 41.5968 29.9598 40.6C32.3398 39.6032 33.513 40.1576 31.3374 43.2348C30.0656 45.0387 28.6845 46.763 27.2018 48.398Z" fill="#FFC727"/>
<path d="M24.9621 43.6408C25.4661 44.2251 25.9561 44.8224 26.4321 45.4328C26.6673 45.7324 26.9053 46.0292 27.1321 46.3344C27.3589 46.6396 27.5829 46.9812 27.8209 47.2948C27.8377 47.3172 27.804 47.3452 27.7872 47.3228C27.5464 47.0428 27.2889 46.7628 27.048 46.4548C26.8072 46.1468 26.5609 45.8388 26.3201 45.5308C25.8441 44.9204 25.382 44.296 24.9368 43.6632C24.92 43.6464 24.9481 43.624 24.9621 43.6408Z" fill="#263238"/>
<path d="M27.1963 48.4204C27.6835 47.7736 28.2575 47.1968 28.7839 46.5836C29.3103 45.9704 29.8339 45.3376 30.3351 44.6992C30.3351 44.6992 30.3715 44.6992 30.3603 44.716C30.1279 45.0492 29.9011 45.3852 29.6575 45.71C29.5371 45.8696 29.4111 46.0264 29.2823 46.1832L29.4699 46.0292C29.6618 45.8849 29.8609 45.7504 30.0663 45.626C30.0663 45.626 30.0887 45.626 30.0663 45.6428C29.8881 45.8077 29.7011 45.9628 29.5063 46.1076C29.3663 46.214 29.2263 46.312 29.0779 46.41L28.8539 46.69C28.3651 47.3209 27.8207 47.9066 27.2271 48.44C27.2103 48.4652 27.1795 48.44 27.1963 48.4204Z" fill="#263238"/>
<path d="M25.4941 62.3112C26.2417 61.8044 25.2141 61.2108 25.2141 61.2108C25.2141 61.2108 26.8941 61.7092 27.4541 60.8888C28.0141 60.0684 26.7373 59.4244 26.6477 59.374C26.7373 59.402 28.2941 59.8164 28.7813 58.9344C29.2685 58.0524 27.9021 57.5596 27.8125 57.5344C27.9049 57.5344 29.1173 57.4812 29.3357 56.7252C29.7081 55.4288 26.2249 55.2776 25.4745 54.4852C25.4745 54.4852 25.8105 52.7716 25.8385 52.724C25.6132 53.1085 25.2636 53.4048 24.8473 53.564C24.0941 53.7768 23.4165 53.9 23.1113 54.2612C22.9689 54.4192 22.8811 54.6189 22.861 54.8307C22.8408 55.0425 22.8893 55.2551 22.9993 55.4372C22.9993 55.4372 22.0473 55.328 21.6413 56.0112C21.4341 56.3612 21.8121 57.008 21.8121 57.008C21.5967 56.9926 21.3811 57.0367 21.1891 57.1354C20.997 57.2342 20.8357 57.3838 20.7229 57.568C20.4625 58.072 20.8825 58.6404 20.8825 58.6404C20.8825 58.6404 20.1209 58.9204 20.0229 59.5252C19.8353 60.7376 23.8925 63.392 25.4941 62.3112Z" fill="#AD6359"/>
<path d="M20.9498 58.744C20.9498 58.744 20.919 58.744 20.9302 58.7636C22.0908 60.0139 23.6046 60.8811 25.2702 61.25C25.3234 61.25 25.3626 61.1772 25.3066 61.1548C23.7452 60.5665 22.2776 59.7545 20.9498 58.744Z" fill="#263238"/>
<path d="M21.8006 56.9968C21.7988 56.9954 21.7967 56.9943 21.7944 56.9936C21.7921 56.993 21.7898 56.9928 21.7874 56.993C21.7851 56.9933 21.7828 56.994 21.7808 56.9951C21.7787 56.9963 21.7769 56.9978 21.7754 56.9997C21.7739 57.0015 21.7728 57.0036 21.7722 57.0059C21.7715 57.0081 21.7713 57.0105 21.7716 57.0128C21.7719 57.0152 21.7726 57.0174 21.7737 57.0195C21.7748 57.0216 21.7764 57.0234 21.7782 57.0249C23.0721 58.3891 24.8109 59.2461 26.681 59.4412C26.7454 59.4412 26.8098 59.3853 26.7342 59.3741C25.4798 59.1837 23.0326 57.96 21.8006 56.9968Z" fill="#263238"/>
<path d="M27.9637 57.4923C26.1381 57.2851 24.5617 56.5123 23.0581 55.4875C23.0385 55.4875 23.0217 55.5015 23.0329 55.5183C23.6321 56.2211 24.6597 56.7756 25.4969 57.1396C26.2657 57.4915 27.1134 57.6354 27.9553 57.5567C28.0001 57.5539 28.0001 57.4979 27.9637 57.4923Z" fill="#263238"/>
<path d="M20.8461 58.6404C20.694 58.4873 20.5873 58.295 20.5379 58.085C20.4884 57.8749 20.4982 57.6553 20.5661 57.4504C20.6538 57.2575 20.8078 57.1025 21.0001 57.0136C21.2293 56.9343 21.4744 56.9122 21.7141 56.9492C21.5804 56.7608 21.507 56.5364 21.5035 56.3054C21.5 56.0745 21.5666 55.8479 21.6945 55.6556C21.8379 55.4911 22.0376 55.3862 22.2545 55.3616C22.5019 55.3376 22.7515 55.347 22.9965 55.3896C22.8944 55.2695 22.8218 55.1272 22.7844 54.9741C22.747 54.821 22.7457 54.6613 22.7809 54.5076C22.8272 54.3407 22.9122 54.1871 23.0289 54.0592C23.1457 53.9312 23.2909 53.8326 23.4529 53.7712C23.8339 53.6333 24.2293 53.5393 24.6317 53.4912C24.8382 53.4602 25.0403 53.4048 25.2337 53.326C25.4421 53.2306 25.6168 53.0744 25.7349 52.878C25.7573 52.8444 25.7573 52.878 25.7349 52.9088C25.6565 53.0422 25.5561 53.1615 25.4381 53.2616C25.3155 53.3684 25.1789 53.4578 25.0321 53.5276C24.6676 53.6651 24.2932 53.7746 23.9121 53.8552C23.578 53.9442 23.2827 54.141 23.0721 54.4152C22.9758 54.5603 22.9217 54.7292 22.9158 54.9032C22.9098 55.0773 22.9523 55.2495 23.0385 55.4008C23.0385 55.4008 23.0385 55.4372 23.0133 55.4344C22.7897 55.4334 22.5668 55.4598 22.3497 55.5128C22.1695 55.5558 22.0071 55.6537 21.8849 55.7928C21.7716 55.9702 21.7068 56.1743 21.697 56.3845C21.6871 56.5948 21.7326 56.804 21.8289 56.9912C21.5874 57.0074 21.351 57.0681 21.1317 57.1704C20.9893 57.258 20.8747 57.3842 20.8013 57.5344C20.7174 57.7074 20.6832 57.9003 20.7025 58.0917C20.7218 58.283 20.7938 58.4652 20.9105 58.618C20.9115 58.6226 20.9115 58.6274 20.9105 58.632C20.9105 58.632 20.6669 58.7328 20.6557 58.7328C20.7172 58.6981 20.7808 58.6673 20.8461 58.6404Z" fill="#263238"/>
<path d="M34.7451 42.7028C33.8547 43.0304 32.1131 41.818 31.3543 40.7596C31.3039 40.6868 31.2535 37.5368 31.1807 36.9152C31.1639 36.7864 35.2043 37.3968 35.2043 37.3968C35.0752 38.2021 35.0451 39.0202 35.1147 39.8328C35.1259 39.9224 35.6047 42.3892 34.7451 42.7028Z" fill="#AD6359"/>
<path d="M35.2043 37.3967C35.2043 37.3967 35.1595 37.6571 35.1231 38.0435C34.0031 39.4183 32.2055 39.564 31.2927 39.5332C31.2619 38.556 31.2255 37.2931 31.1807 36.9151C31.1639 36.7891 35.2043 37.3967 35.2043 37.3967Z" fill="#263238"/>
<path d="M31.1978 30.2036C31.1978 30.2036 29.9098 30.702 29.6466 31.99C29.3834 33.278 29.6466 34.6444 29.753 34.7144C29.8594 34.7844 31.1978 30.2036 31.1978 30.2036Z" fill="#263238"/>
<path d="M36.4001 31.8668C36.7305 33.2864 35.7281 37.2596 34.6753 38.0884C33.1521 39.2924 30.7889 39.2588 29.7977 37.4584C28.8401 35.714 30.2401 30.562 31.4021 29.82C33.1101 28.7308 35.9045 29.7668 36.4001 31.8668Z" fill="#AD6359"/>
<path d="M32.4042 34.0984C32.4042 34.0984 32.4238 34.1152 32.421 34.1264C32.365 34.4064 32.3454 34.7228 32.5806 34.8572C32.5806 34.8572 32.5806 34.874 32.5806 34.8712C32.2782 34.776 32.3062 34.3476 32.4042 34.0984Z" fill="#263238"/>
<path d="M32.6986 33.852C33.1494 33.894 33.029 34.79 32.6146 34.7508C32.2002 34.7116 32.3234 33.8156 32.6986 33.852Z" fill="#263238"/>
<path d="M30.8418 33.8212C30.8418 33.8212 30.8194 33.8212 30.8166 33.8436C30.7914 34.1236 30.7158 34.4344 30.4526 34.496V34.5128C30.7662 34.5072 30.8614 34.0872 30.8418 33.8212Z" fill="#263238"/>
<path d="M30.6319 33.4992C30.1895 33.4096 30.0411 34.3 30.4527 34.384C30.8643 34.468 31.0015 33.5748 30.6319 33.4992Z" fill="#263238"/>
<path d="M32.343 36.414C32.2702 36.4728 32.1946 36.5568 32.0938 36.5568C31.9902 36.5461 31.89 36.5136 31.7998 36.4616C31.8341 36.5201 31.8839 36.5681 31.9437 36.6002C32.0034 36.6323 32.0709 36.6473 32.1386 36.6436C32.1976 36.6363 32.2528 36.6104 32.2961 36.5696C32.3394 36.5288 32.3686 36.4753 32.3794 36.4168C32.3794 36.4168 32.3542 36.4 32.343 36.414Z" fill="#263238"/>
<path d="M31.0463 35.1372C31.0463 35.1372 30.9287 35.5404 30.9007 35.7364C31.2814 35.792 31.652 35.9023 32.0011 36.064C32.0823 36.1032 32.0935 36.0331 32.0011 35.9604C31.7406 35.7487 31.4227 35.62 31.0883 35.5908C31.0883 35.5348 31.2815 34.972 31.2507 34.9636C31.0995 34.9549 30.9478 34.9671 30.7999 35C31.0183 34.16 31.3599 33.3424 31.5783 32.48C31.5783 32.4492 31.5419 32.4324 31.5279 32.4576C31.1239 33.3127 30.8051 34.2055 30.5759 35.1232C30.5395 35.2464 30.9623 35.1596 31.0463 35.1372Z" fill="#263238"/>
<path d="M33.0399 33.5468C32.9335 33.4796 32.8495 33.3985 32.7599 33.3229C32.6703 33.2473 32.5527 33.1773 32.5107 33.0429C32.5017 33.0024 32.5068 32.9601 32.5251 32.9229C32.5434 32.8858 32.5739 32.856 32.6115 32.8384C32.6902 32.8127 32.7745 32.8087 32.8554 32.8269C32.9362 32.8452 33.0106 32.885 33.0707 32.9421C33.2121 33.037 33.3122 33.1821 33.3507 33.348C33.3581 33.387 33.3536 33.4273 33.3379 33.4638C33.3222 33.5002 33.2959 33.5311 33.2625 33.5525C33.229 33.5739 33.19 33.5848 33.1503 33.5838C33.1106 33.5828 33.0722 33.5699 33.0399 33.5468Z" fill="#263238"/>
<path d="M30.4361 32.5136C30.5593 32.494 30.6713 32.4604 30.7917 32.4296C30.9214 32.4185 31.0436 32.3643 31.1389 32.2756C31.1639 32.2425 31.1774 32.2022 31.1774 32.1608C31.1774 32.1193 31.1639 32.079 31.1389 32.046C31.0775 31.9901 31.0024 31.9516 30.9212 31.9344C30.84 31.9171 30.7557 31.9218 30.6769 31.948C30.5086 31.9761 30.3569 32.066 30.2513 32.2C30.23 32.2316 30.2181 32.2685 30.2169 32.3066C30.2157 32.3447 30.2254 32.3823 30.2447 32.4151C30.2641 32.4479 30.2923 32.4746 30.3262 32.492C30.36 32.5095 30.3981 32.5169 30.4361 32.5136Z" fill="#263238"/>
<path d="M35.7391 35.2604C34.9159 35.1792 35.3639 31.5476 35.3639 31.5476C34.8558 31.7207 34.3242 31.8151 33.7875 31.8276C33.2453 31.8085 32.707 31.7277 32.1831 31.5868C32.0711 31.5448 33.5579 31.1248 33.5579 31.1248C33.5579 31.1248 29.9011 31.444 29.7779 30.7552C29.7331 30.5172 30.4135 28.35 33.4487 28.4872C35.6887 28.588 36.7331 30.9288 36.7331 30.9288C36.7331 30.9288 37.8223 32.1412 37.6347 32.69C37.3155 33.6532 36.6127 35.3472 35.7391 35.2604Z" fill="#263238"/>
<path d="M35.2407 35.2801C35.2407 35.2801 36.2627 34.0593 36.8255 34.4401C37.3883 34.8209 36.5455 36.6381 35.8231 36.8369C35.7331 36.8681 35.6377 36.8809 35.5426 36.8745C35.4476 36.8681 35.3548 36.8425 35.2698 36.7994C35.1849 36.7562 35.1095 36.6964 35.0482 36.6235C34.9869 36.5505 34.9409 36.466 34.9131 36.3749L35.2407 35.2801Z" fill="#AD6359"/>
<path d="M48.8794 51.9568C51.153 50.2012 48.9802 41.2888 47.6586 38.0072C47.2694 37.0412 41.0954 38.8472 41.3838 39.9308C43.033 46.06 46.3902 53.8804 48.8794 51.9568Z" fill="#AD6359"/>
<path d="M42.4062 43.2936L43.0867 44.9736C43.3191 45.5336 43.5459 46.0936 43.7979 46.6536C44.0499 47.2136 44.2935 47.754 44.5511 48.3C44.8087 48.846 45.0943 49.3808 45.3743 49.9184C45.02 49.425 44.6973 48.9097 44.4083 48.3756C44.1283 47.8408 43.8482 47.292 43.6046 46.7376C43.361 46.1832 43.137 45.6176 42.9354 45.0408C42.7338 44.464 42.5602 43.8844 42.4062 43.2936Z" fill="#263238"/>
<path d="M42.0003 25.578C42.0274 25.8929 41.9604 26.2088 41.808 26.4856C41.6556 26.7625 41.4245 26.988 41.144 27.1336C40.8635 27.2793 40.5461 27.3385 40.232 27.3038C39.9178 27.2691 39.621 27.1421 39.379 26.9388C39.137 26.7355 38.9607 26.4651 38.8723 26.1616C38.784 25.8581 38.7875 25.5353 38.8826 25.2339C38.9776 24.9324 39.1599 24.6659 39.4063 24.468C39.6527 24.2702 39.9523 24.1497 40.2671 24.122C40.4766 24.1036 40.6876 24.1266 40.8882 24.1898C41.0887 24.2531 41.2748 24.3552 41.4358 24.4905C41.5968 24.6257 41.7295 24.7914 41.8264 24.978C41.9233 25.1646 41.9824 25.3685 42.0003 25.578Z" fill="white"/>
<path d="M42 25.578C42.0347 26.0067 41.9036 26.4324 41.6338 26.7674C41.3639 27.1023 40.9759 27.321 40.5496 27.3784C40.3175 27.425 40.0781 27.422 39.8472 27.3696C39.6164 27.3172 39.3992 27.2166 39.2099 27.0744C39.0206 26.9321 38.8635 26.7515 38.7489 26.5443C38.6343 26.3371 38.5648 26.1081 38.545 25.8722C38.5251 25.6362 38.5554 25.3988 38.6337 25.1754C38.712 24.9519 38.8367 24.7476 38.9996 24.5757C39.1624 24.4039 39.3597 24.2684 39.5786 24.1781C39.7975 24.0879 40.033 24.0449 40.2696 24.052C40.6983 24.0374 41.1164 24.1873 41.4382 24.471C41.7599 24.7547 41.9609 25.1508 42 25.578ZM42 25.578C41.9821 25.372 41.9227 25.1718 41.8253 24.9894C41.728 24.807 41.5947 24.6462 41.4335 24.5167C41.2724 24.3872 41.0867 24.2917 40.8876 24.2359C40.6885 24.1801 40.4802 24.1652 40.2752 24.192C39.8833 24.2424 39.526 24.4423 39.278 24.7499C39.03 25.0576 38.9105 25.4491 38.9445 25.8428C38.9785 26.2365 39.1633 26.6018 39.4603 26.8624C39.7574 27.123 40.1436 27.2588 40.5384 27.2412C40.7452 27.2325 40.948 27.182 41.1347 27.0928C41.3214 27.0036 41.4881 26.8774 41.6247 26.722C41.7613 26.5665 41.865 26.385 41.9295 26.1884C41.994 25.9918 42.018 25.7842 42 25.578Z" fill="#263238"/>
<path d="M38.5227 28.5263C38.5376 28.7017 38.5001 28.8776 38.415 29.0318C38.3299 29.1859 38.201 29.3114 38.0447 29.3923C37.8883 29.4732 37.7114 29.5059 37.5364 29.4863C37.3615 29.4667 37.1962 29.3957 37.0616 29.2822C36.927 29.1687 36.829 29.0179 36.7801 28.8487C36.7312 28.6796 36.7336 28.4998 36.7869 28.3319C36.8402 28.1641 36.942 28.0159 37.0795 27.906C37.2171 27.796 37.3841 27.7293 37.5595 27.7143C37.6762 27.7039 37.7937 27.7168 37.9054 27.752C38.0171 27.7873 38.1206 27.8443 38.2102 27.9198C38.2997 27.9953 38.3734 28.0877 38.4271 28.1918C38.4807 28.2959 38.5132 28.4096 38.5227 28.5263Z" fill="white"/>
<path d="M38.5226 28.5263C38.5383 28.7184 38.4958 28.9109 38.4007 29.0786C38.3056 29.2463 38.1621 29.3814 37.9891 29.4665C37.8161 29.5516 37.6215 29.5826 37.4306 29.5555C37.2397 29.5285 37.0614 29.4446 36.9188 29.3148C36.7763 29.185 36.6761 29.0153 36.6313 28.8278C36.5865 28.6403 36.5991 28.4436 36.6676 28.2634C36.7361 28.0832 36.8573 27.9278 37.0153 27.8173C37.1734 27.7069 37.361 27.6466 37.5538 27.6443C37.7964 27.6433 38.0305 27.7334 38.2099 27.8967C38.3893 28.06 38.5008 28.2847 38.5226 28.5263ZM38.5226 28.5263C38.5134 28.4127 38.4806 28.3023 38.4263 28.202C38.372 28.1018 38.2975 28.014 38.2074 27.9442C38.1173 27.8744 38.0136 27.8241 37.903 27.7966C37.7924 27.769 37.6773 27.7649 37.565 27.7843C37.4073 27.811 37.2608 27.883 37.1434 27.9916C37.026 28.1001 36.9428 28.2405 36.9039 28.3956C36.865 28.5508 36.8721 28.7138 36.9243 28.865C36.9766 29.0161 37.0717 29.1487 37.1981 29.2467C37.3245 29.3446 37.4767 29.4036 37.6361 29.4165C37.7955 29.4294 37.9552 29.3955 38.0957 29.3191C38.2361 29.2427 38.3513 29.127 38.4271 28.9862C38.5029 28.8455 38.5361 28.6856 38.5226 28.5263Z" fill="#263238"/>
<path d="M53.9449 18.1412C54.0936 19.3704 53.7483 20.6084 52.985 21.5833C52.2217 22.5582 51.1027 23.1903 49.8737 23.3408C49.0649 23.4415 48.2438 23.3265 47.4937 23.0076C47.1278 23.4865 46.6564 23.8746 46.1162 24.1418C45.576 24.4089 44.9814 24.5479 44.3787 24.5479C43.776 24.5479 43.1814 24.4089 42.6412 24.1418C42.101 23.8746 41.6296 23.4865 41.2637 23.0076C41.0915 23.0585 40.9155 23.095 40.7373 23.1168C40.1276 23.1912 39.5094 23.0873 38.9576 22.8174C38.4059 22.5476 37.9442 22.1235 37.6286 21.5966C37.3129 21.0697 37.1569 20.4625 37.1794 19.8487C37.2019 19.2349 37.402 18.6408 37.7553 18.1384C37.0672 17.263 36.7146 16.1706 36.7609 15.0581C36.8072 13.9456 37.2494 12.8862 38.0079 12.071C38.7663 11.2558 39.7911 10.7384 40.8973 10.6121C42.0036 10.4857 43.1186 10.7588 44.0413 11.382C44.4741 10.8439 45.0414 10.4296 45.6857 10.1812C46.33 9.93273 47.0286 9.85891 47.7106 9.96718C48.3926 10.0755 49.0339 10.362 49.5696 10.7978C50.1054 11.2335 50.5164 11.8031 50.7613 12.4488C50.9249 12.3938 51.0938 12.3562 51.2653 12.3368C51.783 12.2748 52.3074 12.372 52.7685 12.6155C53.2295 12.8591 53.6054 13.2374 53.846 13.7C54.0866 14.1626 54.1805 14.6876 54.1151 15.2049C54.0497 15.7223 53.8282 16.2074 53.4801 16.5956C53.7249 17.0794 53.8823 17.6026 53.9449 18.1412Z" fill="white"/>
<path d="M53.9449 18.1412C54.0905 19.3699 53.7498 20.6069 52.9957 21.588C52.7429 21.9075 52.4513 22.1944 52.1277 22.442C51.4723 22.938 50.6989 23.2546 49.8839 23.3607C49.0688 23.4667 48.2402 23.3585 47.4797 23.0468H47.5245C47.1566 23.5348 46.6808 23.9313 46.1344 24.2052C45.588 24.4792 44.9857 24.6231 44.3745 24.6259C43.7604 24.6281 43.154 24.4892 42.6021 24.22C42.0504 23.946 41.5672 23.5518 41.1881 23.0663L41.2889 23.1C40.6374 23.2967 39.941 23.2869 39.2953 23.072C38.6466 22.8579 38.0815 22.4456 37.6797 21.8932C37.483 21.6155 37.3274 21.3109 37.2177 20.9888C37.1128 20.6648 37.0571 20.3269 37.0525 19.9864C37.0464 19.3 37.2538 18.6288 37.6461 18.0655V18.2224C36.9299 17.3257 36.5646 16.199 36.6185 15.0528C36.6489 14.1989 36.9085 13.3689 37.3702 12.65C37.8318 11.9311 38.4785 11.3496 39.2423 10.9667C40.0061 10.5838 40.8589 10.4136 41.7111 10.4738C42.5634 10.5341 43.3838 10.8226 44.0861 11.3092L43.9629 11.326C44.4076 10.7786 44.9892 10.3587 45.6486 10.1089C46.3081 9.85903 47.022 9.78819 47.7177 9.90355C48.4092 10.0183 49.0581 10.3135 49.599 10.7595C50.1398 11.2054 50.5533 11.7862 50.7977 12.4432L50.7613 12.4236C51.3084 12.2456 51.8991 12.2535 52.4413 12.446C52.8399 12.5885 53.1972 12.8272 53.4815 13.1409C53.7658 13.4547 53.9683 13.8337 54.071 14.2444C54.1738 14.6551 54.1736 15.0848 54.0705 15.4954C53.9674 15.906 53.7646 16.2849 53.4801 16.5984C53.7251 17.081 53.8825 17.6034 53.9449 18.1412ZM53.9449 18.1412C53.8788 17.6028 53.7177 17.0804 53.4689 16.5984C53.8494 16.1806 54.0799 15.648 54.124 15.0847C54.1682 14.5214 54.0233 13.9594 53.7125 13.4876C53.4051 13.017 52.9501 12.6618 52.419 12.4779C51.8879 12.2939 51.3107 12.2915 50.7781 12.4712H50.7501V12.4432C50.5016 11.8074 50.0914 11.2477 49.5601 10.8192C49.0285 10.3914 48.3926 10.113 47.7177 10.0128C47.0459 9.91242 46.3596 9.98965 45.7269 10.2368C45.0981 10.4864 44.5465 10.8979 44.1281 11.4296L44.0749 11.4968L44.0021 11.4464C43.1008 10.8457 42.0152 10.5853 40.9395 10.7119C39.8638 10.8385 38.8682 11.3437 38.131 12.1372C37.3938 12.9307 36.9629 13.9606 36.9156 15.0427C36.8684 16.1248 37.2077 17.1884 37.8729 18.0432L37.9345 18.1216L37.8757 18.2028C37.5099 18.7191 37.3141 19.3367 37.3157 19.9696C37.3201 20.284 37.3701 20.5962 37.4641 20.8963C37.5623 21.1959 37.7048 21.479 37.8869 21.7364C38.2574 22.2546 38.7795 22.6451 39.3813 22.8542C39.9831 23.0633 40.6348 23.0807 41.2469 22.904L41.3113 22.8872L41.3477 22.9376C41.704 23.4067 42.1615 23.7895 42.6861 24.0576C43.4849 24.4622 44.3996 24.5762 45.2732 24.38C46.1469 24.1838 46.925 23.6897 47.4741 22.9824L47.4937 22.9572H47.5217C48.2678 23.2799 49.086 23.3997 49.8933 23.3044C50.7054 23.2045 51.4774 22.8948 52.1333 22.4056C52.4564 22.1627 52.748 21.8805 53.0013 21.5655C53.25 21.2433 53.4578 20.8916 53.6201 20.5184C53.9309 19.767 54.0428 18.9483 53.9449 18.1412Z" fill="#263238"/>
<path d="M45.9623 18.2867C45.9564 17.9459 46.0173 17.6073 46.1415 17.2899C46.2975 16.9568 46.5608 16.6857 46.8891 16.5199C47.0039 16.4499 47.1411 16.3743 47.3091 16.2875C47.4792 16.1979 47.6412 16.094 47.7935 15.9767C47.9501 15.8576 48.0863 15.7139 48.1967 15.5511C48.3072 15.3855 48.3648 15.1902 48.3619 14.9911C48.3648 14.8458 48.3331 14.7018 48.2695 14.5711C48.212 14.4541 48.131 14.3501 48.0315 14.2659C47.9304 14.1816 47.8132 14.1187 47.6871 14.0811C47.5578 14.0391 47.4227 14.0173 47.2867 14.0167C47.1311 14.0138 46.9766 14.0434 46.8331 14.1035C46.7018 14.1576 46.5784 14.2291 46.4663 14.3163C46.3616 14.4039 46.2676 14.5035 46.1863 14.6131C46.106 14.7118 46.0321 14.8157 45.9651 14.9239L44.9795 14.2435C45.075 14.0161 45.2075 13.8061 45.3715 13.6219C45.5292 13.4403 45.7144 13.2844 45.9203 13.1599C46.1303 13.0361 46.3565 12.9419 46.5923 12.8799C46.8362 12.8156 47.0876 12.7836 47.3399 12.7847C47.6243 12.7862 47.9071 12.8276 48.1799 12.9079C48.4546 12.9899 48.7105 13.1249 48.9331 13.3055C49.1624 13.4948 49.3477 13.7318 49.4763 13.9999C49.6213 14.3177 49.6921 14.6643 49.6835 15.0135C49.6869 15.2293 49.6586 15.4444 49.5995 15.6519C49.5458 15.8319 49.4636 16.002 49.3559 16.1559C49.2499 16.3076 49.1247 16.445 48.9835 16.5647C48.83 16.6933 48.6671 16.8103 48.4963 16.9147L48.0427 17.1751C47.8974 17.2559 47.7596 17.3496 47.6311 17.4551C47.507 17.5518 47.4017 17.6705 47.3203 17.8051C47.236 17.9513 47.1943 18.1181 47.1999 18.2867H45.9623ZM45.9847 20.9243V19.3619H47.2391V20.9243H45.9847Z" fill="#FFC727"/>
<path d="M43.1595 15.3636C43.237 15.6952 43.2466 16.039 43.1875 16.3744C43.1076 16.7309 42.9104 17.0504 42.6275 17.2816C42.5295 17.3712 42.4091 17.4748 42.2635 17.5952C42.1154 17.718 41.9777 17.8529 41.8519 17.9984C41.7236 18.1467 41.6205 18.3151 41.5467 18.4968C41.4727 18.6818 41.4571 18.885 41.5019 19.0792C41.5273 19.2211 41.5869 19.3547 41.6755 19.4684C41.7558 19.5721 41.8569 19.6579 41.9723 19.7204C42.0885 19.7827 42.2162 19.8208 42.3475 19.8324C42.4832 19.8447 42.62 19.8372 42.7535 19.81C42.9059 19.7808 43.0507 19.7208 43.1791 19.6336C43.2962 19.5544 43.4026 19.4602 43.4955 19.3536C43.5851 19.2467 43.6613 19.1291 43.7223 19.0036C43.7795 18.89 43.83 18.7731 43.8735 18.6536L44.9767 19.1184C44.9316 19.3608 44.8454 19.5938 44.7219 19.8072C44.6021 20.0157 44.451 20.2046 44.2739 20.3672C44.0942 20.5322 43.8925 20.6717 43.6747 20.7816C43.4495 20.8948 43.2104 20.9776 42.9635 21.028C42.6821 21.0878 42.3934 21.1058 42.1067 21.0812C41.8213 21.0598 41.5431 20.9807 41.2891 20.8488C41.027 20.7121 40.797 20.5212 40.6143 20.2888C40.2837 19.8257 40.1207 19.2637 40.1523 18.6956C40.1678 18.5094 40.2132 18.327 40.2867 18.1552C40.3586 17.9849 40.4528 17.8248 40.5667 17.6792C40.6901 17.5212 40.8249 17.3724 40.9699 17.234C41.0987 17.1164 41.2303 16.9988 41.3591 16.8868C41.4836 16.7757 41.597 16.6529 41.6979 16.52C41.7963 16.3987 41.8731 16.2614 41.9247 16.114C41.9758 15.9535 41.9816 15.782 41.9415 15.6184L43.1595 15.3636ZM42.5995 12.7876L42.9215 14.3164L41.6923 14.574L41.3703 13.0452L42.5995 12.7876Z" fill="#FFC727"/>
</svg>
