<svg width="19" height="21" viewBox="0 0 19 21" fill="none" xmlns="http://www.w3.org/2000/svg">
<path d="M8 0.275C8.31667 0.0916667 8.65 0 9 0C9.35 0 9.68333 0.0916667 10 0.275L17 4.3C17.3167 4.48333 17.5625 4.725 17.7375 5.025C17.9125 5.325 18 5.65833 18 6.025V10.275C17.7 10.0583 17.3833 9.87083 17.05 9.7125C16.7167 9.55417 16.3667 9.41667 16 9.3V7.1L12.4 9.175C11.4667 9.40833 10.6208 9.80417 9.8625 10.3625C9.10417 10.9208 8.48333 11.6 8 12.4V10.575L2 7.1V13.95L7.05 16.875C7.11667 17.4083 7.24167 17.9208 7.425 18.4125C7.60833 18.9042 7.84167 19.3667 8.125 19.8C8.09167 19.7833 8.07083 19.7708 8.0625 19.7625C8.05417 19.7542 8.03333 19.7417 8 19.725L1 15.7C0.683333 15.5167 0.4375 15.275 0.2625 14.975C0.0875 14.675 0 14.3417 0 13.975V6.025C0 5.65833 0.0875 5.325 0.2625 5.025C0.4375 4.725 0.683333 4.48333 1 4.3L8 0.275ZM9 2L3.075 5.425L9 8.85L14.925 5.425L9 2ZM14 19L17 16L16.3 15.3L14.5 17.1V13H13.5V17.1L11.7 15.3L11 16L14 19ZM14 21C12.6167 21 11.4375 20.5125 10.4625 19.5375C9.4875 18.5625 9 17.3833 9 16C9 14.6167 9.4875 13.4375 10.4625 12.4625C11.4375 11.4875 12.6167 11 14 11C15.3833 11 16.5625 11.4875 17.5375 12.4625C18.5125 13.4375 19 14.6167 19 16C19 17.3833 18.5125 18.5625 17.5375 19.5375C16.5625 20.5125 15.3833 21 14 21Z" fill="white"/>
</svg>
