<svg width="18" height="22" viewBox="0 0 18 22" fill="none" xmlns="http://www.w3.org/2000/svg">
<path d="M9 14.3C10.05 14.3 10.9969 14.0479 11.8406 13.5438C12.6844 13.0396 13.35 12.375 13.8375 11.55C13.1813 11.0183 12.4406 10.6104 11.6156 10.3263C10.7906 10.0421 9.91875 9.9 9 9.9C8.08125 9.9 7.20938 10.0421 6.38438 10.3263C5.55938 10.6104 4.81875 11.0183 4.1625 11.55C4.65 12.375 5.31562 13.0396 6.15937 13.5438C7.00312 14.0479 7.95 14.3 9 14.3ZM9 8.8C9.61875 8.8 10.1484 8.58458 10.5891 8.15375C11.0297 7.72292 11.25 7.205 11.25 6.6C11.25 5.995 11.0297 5.47708 10.5891 5.04625C10.1484 4.61542 9.61875 4.4 9 4.4C8.38125 4.4 7.85156 4.61542 7.41094 5.04625C6.97031 5.47708 6.75 5.995 6.75 6.6C6.75 7.205 6.97031 7.72292 7.41094 8.15375C7.85156 8.58458 8.38125 8.8 9 8.8ZM9 22C5.98125 19.4883 3.72656 17.1554 2.23594 15.0013C0.745313 12.8471 0 10.8533 0 9.02C0 6.27 0.904688 4.07917 2.71406 2.4475C4.52344 0.815834 6.61875 0 9 0C11.3812 0 13.4766 0.815834 15.2859 2.4475C17.0953 4.07917 18 6.27 18 9.02C18 9.185 17.9953 9.35458 17.9859 9.52875C17.9766 9.70292 17.9531 9.88167 17.9156 10.065H15.6375C15.675 9.88167 15.7031 9.70292 15.7219 9.52875C15.7406 9.35458 15.75 9.185 15.75 9.02C15.75 7.02167 15.0984 5.38542 13.7953 4.11125C12.4922 2.83708 10.8938 2.2 9 2.2C7.10625 2.2 5.50781 2.83708 4.20469 4.11125C2.90156 5.38542 2.25 7.02167 2.25 9.02C2.25 10.3217 2.80313 11.8112 3.90938 13.4888C5.01562 15.1663 6.7125 17.0317 9 19.085C9.43125 18.7183 9.82969 18.3517 10.1953 17.985C10.5609 17.6183 10.9125 17.2608 11.25 16.9125L11.5031 17.16L12.0516 17.6963C12.2484 17.8888 12.4266 18.0675 12.5859 18.2325L12.825 18.48C12.2813 19.0483 11.6906 19.6258 11.0531 20.2125C10.4156 20.7992 9.73125 21.395 9 22Z" fill="white"/>
</svg>
