<svg width="23" height="20" viewBox="0 0 23 20" fill="none" xmlns="http://www.w3.org/2000/svg">
<path d="M2.42105 20C1.75526 20 1.18531 19.7824 0.711184 19.3472C0.237061 18.912 0 18.3889 0 17.7778V2.22222C0 1.61111 0.237061 1.08796 0.711184 0.652778C1.18531 0.217593 1.75526 0 2.42105 0H19.3684C20.0342 0 20.6042 0.217593 21.0783 0.652778C21.5524 1.08796 21.7895 1.61111 21.7895 2.22222V5H19.3684V2.22222H2.42105V17.7778H19.3684V15H21.7895V17.7778C21.7895 18.3889 21.5524 18.912 21.0783 19.3472C20.6042 19.7824 20.0342 20 19.3684 20H2.42105ZM12.1053 15.5556C11.4395 15.5556 10.8695 15.338 10.3954 14.9028C9.92127 14.4676 9.68421 13.9444 9.68421 13.3333V6.66667C9.68421 6.05556 9.92127 5.53241 10.3954 5.09722C10.8695 4.66204 11.4395 4.44444 12.1053 4.44444H20.5789C21.2447 4.44444 21.8147 4.66204 22.2888 5.09722C22.7629 5.53241 23 6.05556 23 6.66667V13.3333C23 13.9444 22.7629 14.4676 22.2888 14.9028C21.8147 15.338 21.2447 15.5556 20.5789 15.5556H12.1053ZM20.5789 13.3333V6.66667H12.1053V13.3333H20.5789ZM15.7368 11.6667C16.2412 11.6667 16.67 11.5046 17.023 11.1806C17.3761 10.8565 17.5526 10.463 17.5526 10C17.5526 9.53704 17.3761 9.14352 17.023 8.81944C16.67 8.49537 16.2412 8.33333 15.7368 8.33333C15.2325 8.33333 14.8037 8.49537 14.4507 8.81944C14.0976 9.14352 13.9211 9.53704 13.9211 10C13.9211 10.463 14.0976 10.8565 14.4507 11.1806C14.8037 11.5046 15.2325 11.6667 15.7368 11.6667Z" fill="white"/>
</svg>
